<?xml version="1.0" encoding="utf-8"?>
<!-- Generator: Adobe Illustrator 27.5.0, SVG Export Plug-In . SVG Version: 6.00 Build 0)  -->
<svg xmlns="http://www.w3.org/2000/svg" xmlns:xlink="http://www.w3.org/1999/xlink" version="1.1" x="0px" y="0px" viewBox="0 0 3710 3710" style="enable-;background-color:transparent;" xml:space="preserve">
<g id="Background">
	<g>
		<g>
			<rect style="fill:none;" width="3710" height="3710" fill="none"/>
		</g>
	</g>
</g>
<g id="Illustration">
	<g>
		<linearGradient id="SVGID_1_" gradientUnits="userSpaceOnUse" x1="2175.979" y1="1376.8813" x2="1497.0637" y2="2593.5513">
			<stop offset="0" style="stop-color:#DAE3FE"/>
			<stop offset="1" style="stop-color:#E9EFFD"/>
		</linearGradient>
		<path style="fill:url(#SVGID_1_);" d="M2915.703,2843.394c-72.562,74.795-137.489,118.762-187.199,151.954    c-484.81,323.712-1039.002,230.411-1210.344,198.52c-276.44-51.451-509.793-87.748-710.285-268.884    c-455.579-411.598-433.42-1270.22-85.302-1802.1c41.276-63.066,388.867-578.303,944.258-650.904    c13.584-1.776,23.72-2.787,32.597-3.727c85.918-9.097,618.333-57.108,1052.464,306.608    c62.144,52.064,162.151,145.974,254.89,289.203C3345.878,1587.77,3346.953,2398.878,2915.703,2843.394z"/>
		<g>
			
				<rect x="2740.719" y="1803.803" transform="matrix(0.4018 -0.9157 0.9157 0.4018 42.1031 3698.95)" style="fill:#BDD0FB;" width="223.245" height="26.889"/>
			<g>
				<path style="fill:#91B3FA;" d="M2688.901,1520.249l5.585,32.736c1.871,10.965,10.494,19.536,21.47,21.342l26.016,4.281      c7.036,1.157,12.993,5.731,16.079,12.159c7.764,16.172,17.294,31.216,28.3,44.932c4.469,5.57,6.024,12.926,4.021,19.78      l-7.404,25.332c-3.12,10.677,0.877,22.159,9.954,28.59l27.097,19.199c9.077,6.431,21.235,6.395,30.273-0.09l21.445-15.385      c5.802-4.163,13.257-5.134,19.994-2.765c16.59,5.834,33.942,9.836,51.774,11.8c7.087,0.78,13.376,4.884,16.802,11.137      l12.665,23.125c5.344,9.757,16.289,15.048,27.254,13.177l32.736-5.585c10.965-1.871,19.536-10.493,21.342-21.47l4.281-26.016      c1.157-7.036,5.732-12.992,12.159-16.078c16.172-7.765,31.215-17.295,44.931-28.3c5.571-4.469,12.926-6.025,19.781-4.021      l25.332,7.404c10.677,3.121,22.159-0.876,28.59-9.954l19.198-27.097c6.431-9.077,6.395-21.234-0.089-30.273l-15.385-21.445      c-4.163-5.802-5.135-13.258-2.765-19.994c5.834-16.59,9.836-33.942,11.8-51.773c0.78-7.087,4.883-13.377,11.137-16.802      l23.125-12.665c9.757-5.343,15.048-16.288,13.177-27.253l-5.586-32.738c-1.871-10.965-10.492-19.536-21.467-21.341l-26.017-4.28      c-7.036-1.157-12.993-5.731-16.079-12.159c-7.764-16.172-17.294-31.215-28.3-44.932c-4.468-5.57-6.024-12.926-4.021-19.78      l7.404-25.332c3.12-10.677-0.877-22.159-9.954-28.59l-27.096-19.199c-9.077-6.431-21.235-6.395-30.274,0.09l-21.444,15.385      c-5.802,4.163-13.258,5.134-19.994,2.765c-16.59-5.834-33.942-9.837-51.774-11.8c-7.087-0.78-13.378-4.884-16.802-11.137      l-12.665-23.125c-5.344-9.756-16.289-15.048-27.254-13.177l-32.738,5.585c-10.965,1.871-19.536,10.492-21.341,21.469      l-4.281,26.017c-1.157,7.036-5.731,12.993-12.159,16.079c-16.171,7.765-31.215,17.294-44.932,28.299      c-5.57,4.469-12.926,6.025-19.78,4.021l-25.332-7.404c-10.677-3.121-22.159,0.876-28.591,9.953l-19.198,27.098      c-6.431,9.076-6.394,21.233,0.09,30.271l15.385,21.445c4.163,5.802,5.135,13.258,2.766,19.995      c-5.834,16.589-9.836,33.941-11.8,51.773c-0.779,7.087-4.883,13.377-11.136,16.802l-23.125,12.665      C2692.322,1498.338,2687.03,1509.283,2688.901,1520.249z M2776.427,1502.401c-7.257-106.487,73.184-198.694,179.672-205.95      c106.486-7.257,198.694,73.185,205.951,179.672c7.257,106.487-73.186,198.694-179.672,205.951      C2875.89,1689.33,2783.683,1608.888,2776.427,1502.401z"/>
			</g>
			
				<rect x="2826.942" y="901.435" transform="matrix(0.9763 -0.2165 0.2165 0.9763 -167.3103 640.7647)" style="fill:#BDD0FB;" width="26.889" height="364.89"/>
			
				<rect x="2377.365" y="792.49" transform="matrix(0.9939 -0.1104 0.1104 0.9939 -73.6134 281.7751)" style="fill:#BDD0FB;" width="262.946" height="26.888"/>
			<g>
				<path style="fill:#91B3FA;" d="M2600.284,748.299l4.128,24.195c1.383,8.104,7.756,14.44,15.869,15.774l19.228,3.164      c5.2,0.855,9.603,4.236,11.884,8.987c5.739,11.953,12.782,23.072,20.916,33.209c3.303,4.117,4.453,9.553,2.972,14.62      l-5.472,18.723c-2.306,7.892,0.648,16.378,7.357,21.131l20.028,14.19c6.708,4.753,15.695,4.726,22.375-0.066l15.85-11.371      c4.288-3.077,9.799-3.795,14.778-2.044c12.262,4.312,25.086,7.27,38.266,8.721c5.238,0.577,9.886,3.61,12.418,8.232l9.36,17.092      c3.95,7.211,12.039,11.122,20.144,9.74l24.196-4.128c8.104-1.383,14.439-7.756,15.774-15.868l3.164-19.228      c0.855-5.2,4.236-9.603,8.987-11.884c11.952-5.739,23.071-12.782,33.208-20.916c4.118-3.303,9.554-4.453,14.621-2.972      l18.723,5.472c7.892,2.306,16.378-0.648,21.131-7.357l14.189-20.028c4.753-6.708,4.727-15.694-0.066-22.375l-11.371-15.85      c-3.077-4.288-3.795-9.799-2.044-14.778c4.312-12.262,7.27-25.086,8.721-38.266c0.576-5.238,3.609-9.887,8.231-12.418      l17.092-9.361c7.211-3.949,11.122-12.039,9.739-20.143l-4.129-24.197c-1.383-8.104-7.755-14.439-15.866-15.773l-19.229-3.164      c-5.2-0.856-9.603-4.236-11.884-8.987c-5.739-11.953-12.782-23.071-20.917-33.209c-3.302-4.117-4.453-9.554-2.972-14.62      l5.472-18.723c2.306-7.892-0.648-16.378-7.357-21.131l-20.027-14.19c-6.709-4.753-15.695-4.726-22.375,0.067l-15.85,11.371      c-4.288,3.077-9.799,3.795-14.778,2.044c-12.262-4.312-25.087-7.271-38.266-8.721c-5.238-0.577-9.888-3.609-12.419-8.232      l-9.361-17.092c-3.949-7.211-12.039-11.122-20.143-9.74l-24.197,4.128c-8.104,1.383-14.439,7.755-15.773,15.868l-3.164,19.229      c-0.855,5.2-4.236,9.603-8.987,11.884c-11.952,5.739-23.071,12.782-33.209,20.916c-4.117,3.303-9.554,4.453-14.62,2.972      l-18.723-5.472c-7.892-2.307-16.378,0.648-21.132,7.356l-14.19,20.028c-4.753,6.708-4.726,15.693,0.067,22.374l11.371,15.85      c3.077,4.289,3.795,9.799,2.044,14.779c-4.312,12.261-7.27,25.086-8.721,38.265c-0.576,5.238-3.609,9.887-8.231,12.419      l-17.092,9.361C2602.813,732.105,2598.901,740.194,2600.284,748.299z M2664.975,735.108      c-5.364-78.705,54.091-146.855,132.796-152.218c78.704-5.363,146.855,54.091,152.219,132.796      c5.363,78.705-54.092,146.855-132.796,152.219C2738.488,873.267,2670.338,813.813,2664.975,735.108z"/>
			</g>
		</g>
		<g>
			
				<rect x="1325.033" y="746.344" transform="matrix(0.2879 -0.9577 0.9577 0.2879 75.5367 1934.3237)" style="fill:#BDD0FB;" width="26.89" height="340.049"/>
			<g>
				<g>
					<path style="fill:#BDD0FB;" d="M574.998,682.484l-11.372,39.013c-3.81,13.068,1.093,27.115,12.205,34.976l26.338,18.633       c7.123,5.039,11.231,13.26,11.187,21.985c-0.111,21.951,2.326,43.606,7.096,64.59c1.937,8.521-0.288,17.448-6.161,23.919       l-21.704,23.914c-9.147,10.08-10.893,24.854-4.346,36.788l19.544,35.628c6.547,11.934,19.945,18.401,33.362,16.102       l31.832-5.455c8.612-1.476,17.336,1.445,23.482,7.657c15.134,15.299,32.087,28.988,50.659,40.692       c7.381,4.651,12.106,12.533,12.529,21.248l1.561,32.225c0.659,13.596,9.871,25.277,22.939,29.086l39.013,11.373       c13.068,3.809,27.114-1.092,34.976-12.205l18.633-26.338c5.039-7.123,13.26-11.23,21.985-11.186       c21.951,0.11,43.606-2.327,64.588-7.097c8.523-1.936,17.449,0.288,23.92,6.161l23.914,21.704       c10.08,9.148,24.854,10.894,36.788,4.347l35.628-19.544c11.934-6.547,18.401-19.945,16.103-33.362l-5.454-31.832       c-1.476-8.613,1.445-17.337,7.657-23.482c15.298-15.134,28.988-32.087,40.691-50.659c4.65-7.382,12.532-12.107,21.247-12.529       l32.226-1.562c13.596-0.658,25.276-9.871,29.085-22.939l11.373-39.016c3.81-13.068-1.092-27.113-12.202-34.973l-26.34-18.634       c-7.123-5.039-11.231-13.26-11.187-21.985c0.11-21.951-2.326-43.605-7.097-64.589c-1.936-8.521,0.288-17.448,6.161-23.919       l21.704-23.914c9.148-10.08,10.893-24.853,4.346-36.788l-19.544-35.628c-6.547-11.934-19.946-18.401-33.362-16.102       l-31.831,5.454c-8.612,1.476-17.337-1.445-23.482-7.658c-15.134-15.299-32.086-28.99-50.659-40.692       c-7.381-4.651-12.108-12.533-12.53-21.248l-1.561-32.225c-0.659-13.596-9.871-25.277-22.939-29.086l-39.015-11.373       c-13.068-3.81-27.113,1.091-34.974,12.204l-18.634,26.339c-5.039,7.123-13.26,11.231-21.985,11.187       c-21.951-0.11-43.606,2.326-64.59,7.096c-8.521,1.938-17.449-0.287-23.919-6.16l-23.914-21.704       c-10.08-9.148-24.854-10.894-36.789-4.348l-35.629,19.546c-11.934,6.546-18.399,19.944-16.101,33.36l5.454,31.832       c1.476,8.613-1.445,17.338-7.657,23.484c-15.298,15.133-28.988,32.086-40.691,50.658c-4.65,7.382-12.532,12.108-21.247,12.53       l-32.225,1.561C590.489,660.203,578.808,669.415,574.998,682.484z M680.867,709.683       C729.868,588.618,867.734,530.198,988.8,579.2c121.065,49.001,179.485,186.868,130.484,307.933       c-49.001,121.066-186.868,179.485-307.933,130.484C690.284,968.615,631.865,830.749,680.867,709.683z"/>
				</g>
			</g>
		</g>
		<g>
			<path style="fill:#91B3FA;" d="M895.826,882.523c-3.881-15.189,14.247-26.322,26.197-16.175     c121.35,103.034,416.144,415.012,375.272,988.065c-51.281,718.98,110.641,972.284,303.903,1122.06     c0,0-258.219-62.054-431.574-318.63C743.999,2027.888,964.834,1152.584,895.826,882.523z"/>
			<path style="fill:none;" d="M995.205,1101.31c18.483,78.829,35.403,157.98,49.404,237.637     c14.417,79.569,26.415,159.539,35.904,239.768c9.18,80.259,16.852,160.677,21.098,241.302     c4.608,80.602,5.748,161.311,6.61,242.349c1.313,80.986,2.177,162.579,11.395,244.332c9.125,81.59,28.135,163.402,61.531,239.314     c8.345,18.918,17.068,37.758,26.813,55.896c9.414,18.326,19.641,36.241,30.185,53.965c21.27,35.351,44.922,69.351,70.989,101.441     c52.306,64.057,114.326,120.099,181.895,166.773c7.112,4.912,16.859,3.129,21.772-3.983c4.824-6.983,3.191-16.508-3.603-21.501     l-0.048-0.035c-16.113-11.817-32.071-23.805-47.44-36.462c-7.787-6.207-15.282-12.747-22.898-19.142     c-7.363-6.676-14.989-13.069-22.139-19.966c-29.056-27.095-56.175-56.198-81.006-87.162     c-49.914-61.617-90.878-131.012-122.909-203.476c-15.611-36.424-28.511-73.935-38.479-112.309     c-9.94-38.385-16.947-77.594-21.721-117.231c-9.558-79.32-11.08-160.072-12.975-241.044     c-2.001-80.987-4.568-162.357-10.48-243.495c-2.846-40.571-6.421-81.087-10.719-121.519c-2.033-20.227-4.457-40.411-6.844-60.596     c-2.581-20.163-5.273-40.308-8.129-60.427c-11.572-80.46-25.594-160.528-42.125-240.041     c-16.912-79.433-35.927-158.391-57.952-236.484c-0.63-2.233-2.949-3.531-5.181-2.901     C995.986,1096.922,994.7,1099.139,995.205,1101.31z"/>
		</g>
		<g>
			<g>
				<path style="fill:#7D97F4;" d="M1152.262,2977.385c-6.627,28.115-39.814,40.325-63.303,23.514      c-129.611-92.756-472.35-388.148-506.042-937.325c-28.451-463.755-87.948-712.519-122.783-823.576      c-7.366-23.484,19.53-42.722,39.403-28.203C718.797,1371.986,1392.392,1958.627,1152.262,2977.385z"/>
				<path style="fill:none;" d="M1113.441,2982.139c-0.547,0.462-1.144,0.877-1.794,1.239      c-5.438,3.035-12.308,1.086-15.343-4.352c-3.44-6.166-344.833-623.923-413.521-1266.957      c-0.659-6.188,3.823-11.745,10.017-12.413c6.194-0.66,11.749,3.823,12.414,10.018      c68.186,638.353,407.368,1252.236,410.784,1258.361C1118.673,2972.825,1117.48,2978.725,1113.441,2982.139z"/>
			</g>
		</g>
		
			<linearGradient id="SVGID_00000159454683074852103380000014660832854740179618_" gradientUnits="userSpaceOnUse" x1="1103.4913" y1="1775.3574" x2="2607.0833" y2="1775.3574">
			<stop offset="0" style="stop-color:#FF928E"/>
			<stop offset="1" style="stop-color:#FE7062"/>
		</linearGradient>
		<path style="fill:url(#SVGID_00000159454683074852103380000014660832854740179618_);" d="M1103.491,2632.764L2054.346,917.95    l552.738,1509.759L1103.491,2632.764z M2045.563,1030.825l-855.382,1542.63l1352.618-184.469L2045.563,1030.825z"/>
		<g>
			<circle style="fill:none;" cx="2624.623" cy="2387.1" r="502.001"/>
			<g>
				<g>
					
						<linearGradient id="SVGID_00000085958679876736165790000000227006348150439588_" gradientUnits="userSpaceOnUse" x1="2994.717" y1="1840.6293" x2="2093.9775" y2="3117.7976">
						<stop offset="0" style="stop-color:#E1473D"/>
						<stop offset="1" style="stop-color:#E9605A"/>
					</linearGradient>
					<path style="fill:url(#SVGID_00000085958679876736165790000000227006348150439588_);" d="M1970.158,2312.712l-4.736,75.379       c-1.587,25.249,13.023,48.726,36.376,58.457l55.35,23.064c14.969,6.237,25.766,19.473,29.24,35.312       c8.739,39.853,21.975,78.13,39.172,114.24c6.983,14.664,6.584,31.758-1.432,45.884l-29.621,52.206       c-12.484,22.005-9.634,49.508,7.099,68.484l49.951,56.65c16.733,18.976,43.664,25.247,67.058,15.615l55.504-22.855       c15.017-6.184,32.027-4.44,45.702,4.323c33.675,21.581,69.993,39.502,108.439,53.163c15.28,5.428,27.057,17.797,31.374,33.429       l15.954,57.803c6.733,24.388,28.195,41.818,53.444,43.405l75.38,4.736c25.249,1.586,48.724-13.022,58.456-36.376l23.064-55.351       c6.237-14.969,19.474-25.764,35.313-29.239c39.852-8.74,78.129-21.977,114.237-39.173c14.667-6.982,31.76-6.584,45.887,1.432       l52.205,29.621c22.004,12.485,49.507,9.635,68.484-7.099l56.65-49.952c18.976-16.732,25.248-43.662,15.616-67.057       l-22.854-55.505c-6.185-15.018-4.44-32.028,4.323-45.702c21.579-33.675,39.501-69.993,53.162-108.438       c5.427-15.281,17.796-27.059,33.428-31.374l57.803-15.955c24.388-6.73,41.816-28.194,43.403-53.443l4.736-75.385       c1.587-25.249-13.021-48.723-36.371-58.453l-55.354-23.064c-14.969-6.237-25.766-19.472-29.24-35.313       c-8.739-39.852-21.976-78.129-39.172-114.239c-6.98-14.664-6.583-31.759,1.432-45.885l29.62-52.206       c12.484-22.004,9.634-49.506-7.099-68.483l-49.95-56.65c-16.733-18.975-43.665-25.247-67.058-15.613l-55.504,22.853       c-15.017,6.183-32.027,4.44-45.702-4.324c-33.675-21.581-69.993-39.505-108.438-53.163       c-15.28-5.429-27.061-17.798-31.375-33.429l-15.954-57.803c-6.732-24.387-28.195-41.818-53.443-43.404l-75.384-4.737       c-25.249-1.587-48.724,13.021-58.453,36.374l-23.065,55.353c-6.237,14.969-19.473,25.766-35.312,29.24       c-39.852,8.74-78.129,21.975-114.24,39.17c-14.663,6.984-31.759,6.585-45.885-1.43l-52.205-29.62       c-22.004-12.486-49.507-9.635-68.486,7.097l-56.651,49.954c-18.975,16.731-25.243,43.66-15.613,67.053l22.854,55.505       c6.185,15.018,4.441,32.029-4.323,45.704c-21.579,33.674-39.501,69.991-53.162,108.436       c-5.427,15.281-17.796,27.06-33.428,31.375l-57.803,15.954C1989.177,2265.998,1971.745,2287.462,1970.158,2312.712z        M2173.222,2318.924c39.56-239.5,265.781-401.585,505.284-362.024c239.5,39.56,401.585,265.783,362.025,505.284       c-39.56,239.501-265.785,401.585-505.285,362.025C2295.744,2784.648,2133.661,2558.426,2173.222,2318.924z"/>
				</g>
			</g>
			<g>
				<defs>
					<path id="SVGID_00000182527810551969808070000000380685924726476189_" d="M2703.347,2819.467       c-184.418,39.109-380.355-40.686-490.028-179.028c-44.612-56.274-227.251-252.709-243.16-327.726       c-55.019-259.436,307.447-438.997,566.882-494.016c259.439-55.019,549.425,122.586,604.443,382.023       c24.549,115.757-80.355,351.411-132.411,448.013C2944.458,2768.636,2847.028,2788.996,2703.347,2819.467z"/>
				</defs>
				<clipPath id="SVGID_00000079462839327725975400000001736405320026326952_">
					<use xlink:href="#SVGID_00000182527810551969808070000000380685924726476189_" style="overflow:visible;"/>
				</clipPath>
				<g style="clip-path:url(#SVGID_00000079462839327725975400000001736405320026326952_);">
					
						<linearGradient id="SVGID_00000126323341957698452320000002129260335784462759_" gradientUnits="userSpaceOnUse" x1="-2870.6047" y1="2004.0532" x2="-3333.2668" y2="2572.8311" gradientTransform="matrix(-1 0 0 1 -842.6956 0)">
						<stop offset="0" style="stop-color:#FEBBBA"/>
						<stop offset="1" style="stop-color:#FF928E"/>
					</linearGradient>
					<path style="fill:url(#SVGID_00000126323341957698452320000002129260335784462759_);" d="M2091.722,2158.359       c2.27-6.088,10.837-6.252,13.344-0.256c9.281,22.193,29.788,60.376,64.026,70.546c1.725,0.513,3.364,1.044,4.953,1.586       c0.918-4.596,0.293-9.722-3.908-14.665c-12.026-14.148,3.538-37.494,3.538-37.494s3.537,18.393,19.101,28.297       c13.405,8.532,22.048,30.178,16.06,49.582c-8.986,70.418-23.941,163.939,86.778,216.97       c110.718,53.031,231.046-155.397,231.046-155.397l-43.061,235.972c0,0-100.256,95.443-243.215-3.068       c-142.958-98.512-78.736-276.086-78.736-276.086S2058.632,2247.119,2091.722,2158.359z"/>
					
						<linearGradient id="SVGID_00000107558665000345841870000009165800884883733920_" gradientUnits="userSpaceOnUse" x1="3532.8416" y1="1271" x2="3229.4343" y2="1631.5195" gradientTransform="matrix(0.9875 0.1574 -0.1574 0.9875 -198.8565 1.6661)">
						<stop offset="0" style="stop-color:#09005D"/>
						<stop offset="1" style="stop-color:#1A0F91"/>
					</linearGradient>
					<path style="fill:url(#SVGID_00000107558665000345841870000009165800884883733920_);" d="M2502.671,1981.783       c0,0-46.412-129.385,110.5-113.317c0,0,72.496-21.4,85.042,47.987c0,0,51.663,25.44,24.332,90.291       c0,0,134.907-72.594,212.311,43.921c77.404,116.516,29.214,192.041-28.078,217.337c0,0,51.276,18.154,35.321,75.705       c-15.956,57.552-126.726,110.632-203.383,52.721c0,0-191.107,50.113-204.475-87.644c0,0-97.727-47.006-17.052-172.383       C2597.863,2011.023,2502.671,1981.783,2502.671,1981.783z"/>
					
						<linearGradient id="SVGID_00000160171367138984263330000011162443290587351175_" gradientUnits="userSpaceOnUse" x1="2737.8936" y1="2359.0857" x2="2480.7922" y2="2964.0293">
						<stop offset="0" style="stop-color:#4F52FF"/>
						<stop offset="1" style="stop-color:#4042E2"/>
					</linearGradient>
					<path style="fill:url(#SVGID_00000160171367138984263330000011162443290587351175_);" d="M2533.089,2291.39       c29.487-13.038,116.569-41.215,211.275,26.429c16.062,11.472,24.481,30.914,21.724,50.459       c-12.243,86.778-41.211,342.253,25.004,442.892c0,0-80.043,114.115-191.797,44.302c0,0-70.406-192.517-140.922-272.051       c-48.684-54.91,37.22-233.86,59.193-277.246C2520.893,2299.605,2526.354,2294.368,2533.089,2291.39z"/>
					
						<linearGradient id="SVGID_00000158726699577249539080000010521057770896983960_" gradientUnits="userSpaceOnUse" x1="3093.4875" y1="1906.6188" x2="3118.207" y2="1731.1112" gradientTransform="matrix(0.9875 0.1574 -0.1574 0.9875 -198.8565 1.6661)">
						<stop offset="0" style="stop-color:#FEBBBA"/>
						<stop offset="1" style="stop-color:#FF928E"/>
					</linearGradient>
					<path style="fill:url(#SVGID_00000158726699577249539080000010521057770896983960_);" d="M2596.731,2114.042       c0,0,61.431,122.481,71.95,178.599c0,0-47.222,29.071-99.245-3.435c0,0-21.048-127.406-31.086-149.432L2596.731,2114.042z"/>
					
						<linearGradient id="SVGID_00000016046085339389942490000001144217106259214497_" gradientUnits="userSpaceOnUse" x1="2980.1663" y1="1530.5553" x2="3211.2939" y2="1796.2903" gradientTransform="matrix(0.9875 0.1574 -0.1574 0.9875 -198.8565 1.6661)">
						<stop offset="0" style="stop-color:#FEBBBA"/>
						<stop offset="1" style="stop-color:#FF928E"/>
					</linearGradient>
					<path style="fill:url(#SVGID_00000016046085339389942490000001144217106259214497_);" d="M2511.815,1947.188       c0,0-97.672,180.771-20.764,220.042c76.907,39.272,146.463-89.212,146.463-89.212s16.089-94.245-16.541-121.427       C2588.344,1929.409,2511.815,1947.188,2511.815,1947.188z"/>
					
						<linearGradient id="SVGID_00000164480342299521142310000016655912706293392816_" gradientUnits="userSpaceOnUse" x1="3387.5266" y1="1148.7054" x2="3084.1179" y2="1509.2269" gradientTransform="matrix(0.9875 0.1574 -0.1574 0.9875 -198.8565 1.6661)">
						<stop offset="0" style="stop-color:#09005D"/>
						<stop offset="1" style="stop-color:#1A0F91"/>
					</linearGradient>
					<path style="fill:url(#SVGID_00000164480342299521142310000016655912706293392816_);" d="M2561.693,1900.652       c0,0-52.828,19.748-57.361,45.343c-4.534,25.596,83.185,37.775,107.099,35.903l31.654,97.008       c0,0,44.869-100.641,15.647-151.834C2629.51,1875.88,2561.693,1900.652,2561.693,1900.652z"/>
					
						<linearGradient id="SVGID_00000011716809130266419720000010151916203182576799_" gradientUnits="userSpaceOnUse" x1="3037.9128" y1="1480.3282" x2="3269.0396" y2="1746.062" gradientTransform="matrix(0.9875 0.1574 -0.1574 0.9875 -198.8565 1.6661)">
						<stop offset="0" style="stop-color:#FEBBBA"/>
						<stop offset="1" style="stop-color:#FF928E"/>
					</linearGradient>
					<path style="fill:url(#SVGID_00000011716809130266419720000010151916203182576799_);" d="M2613.003,2068.702       c0,0,39.417-59.228,62.146-26.704c22.729,32.524-33.858,66.203-56.735,51.707L2613.003,2068.702z"/>
					
						<linearGradient id="SVGID_00000150804656682951535310000015361947633783427761_" gradientUnits="userSpaceOnUse" x1="-3814.7434" y1="2825.7852" x2="-2900.0342" y2="1779.4923" gradientTransform="matrix(-1 0 0 1 -842.6956 0)">
						<stop offset="0" style="stop-color:#FEBBBA"/>
						<stop offset="1" style="stop-color:#FF928E"/>
					</linearGradient>
					<path style="fill:url(#SVGID_00000150804656682951535310000015361947633783427761_);" d="M2758.61,2333.037       c0,0,159.892,102.107,216.486,261.987c56.594,159.88-188.676,208.464-188.676,208.464s-38.311-33.291-76.512-14.897       c-38.202,18.393-11.319-65.084,35.371-70.743c46.691-5.659,29.713,33.957,91.967-4.245       c60.644-37.213,89.065-132.297-92.176-248.227c-10.506-6.72-19.364-15.858-25.378-26.783       C2677.729,2362.362,2696.399,2306.588,2758.61,2333.037z"/>
				</g>
			</g>
		</g>
		<g>
			<circle style="fill:none;" cx="1288.575" cy="2561.088" r="537.535"/>
			<g>
				
					<linearGradient id="SVGID_00000057846712710375370240000012771673798107725739_" gradientUnits="userSpaceOnUse" x1="-544.4612" y1="1182.0374" x2="2703.2693" y2="4059.3706" gradientTransform="matrix(-0.9684 -0.2493 -0.2493 0.9684 2901.6458 344.8383)">
					<stop offset="0" style="stop-color:#FF928E"/>
					<stop offset="1" style="stop-color:#FE7062"/>
				</linearGradient>
				<path style="fill:url(#SVGID_00000057846712710375370240000012771673798107725739_);" d="M630.356,2489.37l-4.896,77.925      c-1.64,26.102,13.463,50.371,37.605,60.431l57.219,23.843c15.474,6.447,26.636,20.13,30.228,36.505      c9.034,41.198,22.718,80.768,40.494,118.098c7.219,15.159,6.806,32.83-1.481,47.434l-30.621,53.969      c-12.905,22.748-9.959,51.18,7.339,70.797l51.638,58.563c17.298,19.617,45.138,26.1,69.322,16.142l57.379-23.626      c15.524-6.393,33.109-4.59,47.245,4.469c34.812,22.309,72.357,40.836,112.101,54.958c15.796,5.612,27.971,18.398,32.433,34.558      l16.493,59.755c6.96,25.211,29.147,43.23,55.249,44.871l77.926,4.896c26.102,1.639,50.37-13.462,60.43-37.604l23.844-57.22      c6.447-15.474,20.131-26.634,36.505-30.226c41.198-9.035,80.767-22.719,118.095-40.496c15.162-7.218,32.832-6.806,47.437,1.48      l53.968,30.621c22.748,12.906,51.179,9.961,70.796-7.338l58.563-51.638c19.617-17.297,26.1-45.137,16.144-69.322l-23.625-57.379      c-6.393-15.525-4.59-33.11,4.469-47.245c22.308-34.812,40.835-72.356,54.957-112.1c5.611-15.797,18.397-27.973,34.557-32.433      l59.755-16.494c25.212-6.958,43.228-29.146,44.869-55.247l4.896-77.93c1.641-26.101-13.461-50.368-37.599-60.427l-57.223-23.844      c-15.474-6.448-26.637-20.13-30.227-36.505c-9.034-41.198-22.718-80.767-40.495-118.097      c-7.216-15.159-6.806-32.831,1.481-47.434l30.621-53.969c12.906-22.748,9.959-51.178-7.339-70.795l-51.637-58.563      c-17.298-19.616-45.139-26.1-69.323-16.141l-57.378,23.625c-15.524,6.392-33.109,4.59-47.246-4.47      c-34.812-22.309-72.356-40.839-112.1-54.958c-15.796-5.612-27.975-18.399-32.434-34.558l-16.493-59.755      c-6.96-25.21-29.147-43.23-55.248-44.87l-77.93-4.897c-26.101-1.641-50.369,13.46-60.427,37.602l-23.844,57.223      c-6.447,15.474-20.131,26.636-36.505,30.228c-41.198,9.035-80.768,22.718-118.098,40.493      c-15.158,7.219-32.832,6.807-47.434-1.479l-53.968-30.62c-22.747-12.907-51.179-9.961-70.799,7.337l-58.564,51.641      c-19.616,17.296-26.096,45.135-16.14,69.318l23.625,57.38c6.394,15.526,4.591,33.111-4.469,47.248      c-22.308,34.811-40.835,72.354-54.957,112.098c-5.61,15.797-18.398,27.974-34.557,32.435l-59.755,16.493      C650.016,2441.079,631.996,2463.267,630.356,2489.37z M840.277,2495.791c40.896-247.589,274.757-415.147,522.348-374.25      c247.588,40.896,415.147,274.759,374.251,522.348c-40.896,247.59-274.761,415.147-522.349,374.251      C966.937,2977.243,799.381,2743.381,840.277,2495.791z"/>
			</g>
			<g>
				<defs>
					<path id="SVGID_00000041284774314331964370000009364334701541271197_" d="M1388.305,3013.238       c-190.646,40.43-393.199-42.06-506.577-185.074c-46.119-58.175-188.877-250.684-205.323-328.234       c-56.877-268.198,271.715-464.225,539.911-521.102c268.2-56.877,568.044,126.569,624.921,394.766       c25.378,119.666-19.364,367.579-73.178,467.443C1701.263,2964.991,1536.838,2981.738,1388.305,3013.238z"/>
				</defs>
				<clipPath id="SVGID_00000008852322100389991910000010810475620852862340_">
					<use xlink:href="#SVGID_00000041284774314331964370000009364334701541271197_" style="overflow:visible;"/>
				</clipPath>
				<g style="clip-path:url(#SVGID_00000008852322100389991910000010810475620852862340_);">
					
						<linearGradient id="SVGID_00000101800336347682709620000012634145246553290157_" gradientUnits="userSpaceOnUse" x1="-3023.1902" y1="2878.488" x2="-2771.2063" y2="2878.488" gradientTransform="matrix(-1 0 0 1 -1339.3429 0)">
						<stop offset="0" style="stop-color:#A22B25"/>
						<stop offset="1" style="stop-color:#C0423C"/>
					</linearGradient>
					<path style="fill:url(#SVGID_00000101800336347682709620000012634145246553290157_);" d="M1571.595,2807.947       c26.447,21.308,58.213,29.447,95.379,10.212l16.874,38.248c0,0-16.943,84.587-101.806,92.244       c-8.446,0.762-16.785,0.336-24.963-0.933C1517.73,2886.369,1546.93,2835.574,1571.595,2807.947z"/>
					
						<linearGradient id="SVGID_00000105410804805285374280000004034057547875144619_" gradientUnits="userSpaceOnUse" x1="1750.4974" y1="2290.4001" x2="1646.3074" y2="2508.8628">
						<stop offset="0" style="stop-color:#4F52FF"/>
						<stop offset="1" style="stop-color:#4042E2"/>
					</linearGradient>
					<path style="fill:url(#SVGID_00000105410804805285374280000004034057547875144619_);" d="M1431.863,2863.156l40.521-241.378       c1.598,2.512,34.401,133.953,99.211,186.169c-24.665,27.628-53.865,78.422-14.517,139.772       C1488.454,2937.069,1431.863,2863.156,1431.863,2863.156z"/>
					
						<linearGradient id="SVGID_00000028316541544944999730000011979734141072999591_" gradientUnits="userSpaceOnUse" x1="1182.3055" y1="2947.7273" x2="1807.5063" y2="1687.2411">
						<stop offset="0" style="stop-color:#4F52FF"/>
						<stop offset="1" style="stop-color:#4042E2"/>
					</linearGradient>
					<path style="fill:url(#SVGID_00000028316541544944999730000011979734141072999591_);" d="M1118.149,2499.742       c0,0,149.284-49.767,341.939-22.182c20.124,2.881,72.149,111.37,64.404,186.754c-13.117,127.668-82.786,341.938-85.277,342.6       c-80.34,21.335-345.027,3.337-345.027,3.337L1118.149,2499.742z"/>
					
						<linearGradient id="SVGID_00000175283650669541459890000005380306381825572017_" gradientUnits="userSpaceOnUse" x1="3433.7129" y1="2361.2029" x2="3429.9297" y2="2103.9333" gradientTransform="matrix(1 0 0 1 -2090.2158 0)">
						<stop offset="0" style="stop-color:#A22B25"/>
						<stop offset="1" style="stop-color:#C0423C"/>
					</linearGradient>
					<path style="fill:url(#SVGID_00000175283650669541459890000005380306381825572017_);" d="M1265.278,2342.981l8.323,129.334       c0.775,12.031,8.563,22.229,19.479,25.461c25.147,7.445,72.637,16.419,119.184-2.337c8.518-3.432,12.895-13.522,10.029-22.725       l-61.573-197.769L1265.278,2342.981z"/>
					<g>
						
							<linearGradient id="SVGID_00000155855226759153636850000011229482621326997694_" gradientUnits="userSpaceOnUse" x1="-721.8235" y1="-19532.2285" x2="-547.0542" y2="-19276.7949" gradientTransform="matrix(0.9322 -0.362 0.362 0.9322 -13839.1143 4507.9854)">
							<stop offset="0" style="stop-color:#A22B25"/>
							<stop offset="1" style="stop-color:#C0423C"/>
						</linearGradient>
						<path style="fill:url(#SVGID_00000155855226759153636850000011229482621326997694_);" d="M1351.186,2144.229        c0,0,69.37,69.985,88.999,113.234c19.628,43.249,40.293,68.234-7.363,96.985c-47.657,28.751-100.603,20.01-141.031-14.965        c0,0-62.899-53.658-65.49-84.629C1223.709,2223.883,1351.186,2144.229,1351.186,2144.229z"/>
						
							<linearGradient id="SVGID_00000039122412259508173010000017298248596880833692_" gradientUnits="userSpaceOnUse" x1="14865.751" y1="3238.9822" x2="15069.3477" y2="3501.1118" gradientTransform="matrix(0.9322 -0.362 0.362 0.9322 -13839.1143 4507.9854)">
							<stop offset="0" style="stop-color:#09005D"/>
							<stop offset="1" style="stop-color:#1A0F91"/>
						</linearGradient>
						<path style="fill:url(#SVGID_00000039122412259508173010000017298248596880833692_);" d="M1296.963,2301.04l6.462-2.509        c0,0-47.831-44.27-28.164-62.949c19.668-18.679,104.994-73.56,112.218-114.204c6.965-39.183-26.125-73.453-56.292-74.923        c-1.908-0.093-3.529,1.417-3.75,3.315l-0.565,4.858c-0.387,3.327-4.627,4.492-6.659,1.83        c-1.928-2.525-6.005-1.657-6.593,1.465c-2.302,12.21-12.664,34.634-53.925,60.097        c-58.547,36.131-90.328,77.846-74.427,121.831c1.007,2.786-1.353,5.454-4.27,4.933c-5.758-1.029-13.726,0.532-20.432,12.773        c-11.662,21.286,10.092,56.306,60.12,72.635c2.377,0.776,3.456,3.598,1.996,5.628c-5.142,7.153-11.259,21.796,20.841,25.683        c32.837,3.976,48.314-3.858,53.784-7.771c1.471-1.053,1.992-2.968,1.234-4.612l-17.386-37.699        c-0.899-1.95,0.033-4.254,2.034-5.031L1296.963,2301.04z"/>
						
							<linearGradient id="SVGID_00000154414529670255499300000017624630460777347221_" gradientUnits="userSpaceOnUse" x1="-786.7476" y1="-19487.8086" x2="-611.9777" y2="-19232.375" gradientTransform="matrix(0.9322 -0.362 0.362 0.9322 -13839.1143 4507.9854)">
							<stop offset="0" style="stop-color:#A22B25"/>
							<stop offset="1" style="stop-color:#C0423C"/>
						</linearGradient>
						<path style="fill:url(#SVGID_00000154414529670255499300000017624630460777347221_);" d="M1301.689,2308.505        c0,0-34.88-48.368-53.143-23.917c-18.263,24.452,35.926,55.42,56.1,49.902L1301.689,2308.505z"/>
					</g>
					<g>
						
							<linearGradient id="SVGID_00000060741389491443872170000010854179623467344568_" gradientUnits="userSpaceOnUse" x1="1016.9582" y1="2865.7151" x2="1642.1602" y2="1605.2268">
							<stop offset="0" style="stop-color:#4F52FF"/>
							<stop offset="1" style="stop-color:#4042E2"/>
						</linearGradient>
						<path style="fill:url(#SVGID_00000060741389491443872170000010854179623467344568_);" d="M1119.28,2871.611        c-8.076-57.034,50.987-140.874,75.418-172.686c6.989-9.1,10.896-20.226,10.996-31.699        c0.715-80.775-33.202-132.65-87.544-167.484c0,0-197.232,229.781-147.012,406.523c5.418,19.073,13.816,35.461,24.464,49.542        C1003.517,2889.212,1080.49,2874.684,1119.28,2871.611z"/>
						<path style="fill:#7D97F4;" d="M1122.959,2849.55l-7.515-0.857c6.37-55.932,55.45-124.98,76.254-152.072l6.001,4.608        C1177.278,2727.819,1129.118,2795.5,1122.959,2849.55z"/>
						
							<linearGradient id="SVGID_00000165951308104260372140000016137165306083977088_" gradientUnits="userSpaceOnUse" x1="3188.7571" y1="2806.2261" x2="3332.5256" y2="3184.564" gradientTransform="matrix(1 0 0 1 -2090.2158 0)">
							<stop offset="0" style="stop-color:#A22B25"/>
							<stop offset="1" style="stop-color:#C0423C"/>
						</linearGradient>
						<path style="fill:url(#SVGID_00000165951308104260372140000016137165306083977088_);" d="M1120.829,2879.509        c-0.689-2.561-1.167-5.21-1.548-7.898c-38.791,3.073-115.764,17.601-123.678,84.195        c88.016,116.409,330.621,74.411,330.621,74.411v-45.297C1326.224,2984.92,1139.903,2950.305,1120.829,2879.509z"/>
					</g>
					
						<linearGradient id="SVGID_00000152224070403644090770000005820697999347785407_" gradientUnits="userSpaceOnUse" x1="3359.5134" y1="2729.9404" x2="3513.187" y2="3134.3445" gradientTransform="matrix(1 0 0 1 -2090.2158 0)">
						<stop offset="0" style="stop-color:#A22B25"/>
						<stop offset="1" style="stop-color:#C0423C"/>
					</linearGradient>
					<path style="fill:url(#SVGID_00000152224070403644090770000005820697999347785407_);" d="M1302.901,3030.009       c0,0,13.19-90.463,98.938-54.543c64.451,26.998,58.157,49.601,58.157,49.601L1302.901,3030.009z"/>
					<g>
						<path style="fill:#91B3FA;" d="M1713.963,2627.279l-43.156,263.116c-0.755,4.602-4.073,8.352-8.521,9.604        c-16.438,4.625-58.045,13.509-98.863-0.484c-5.621-1.927-9.709-6.866-10.728-12.774l-45.72-265.156L1713.963,2627.279z"/>
						<path style="fill:#7D97F4;" d="M1713.963,2609.572l-9.852-21.957c-0.962-2.145-2.992-3.596-5.314-3.795        c-19.18-1.649-107.422-8.506-165.238-0.507c-3.468,0.48-6.428,2.767-7.784,6.027l-7.672,18.445L1713.963,2609.572z"/>
						<path style="fill:#91B3FA;" d="M1721.74,2610.144l1.84,18.127c0.452,4.451-2.832,8.394-7.25,8.697        c-33.399,2.291-161.444,9.72-213.425-6.887c-3.74-1.195-5.871-5.17-4.87-9.001l2.435-9.315        c1.362-5.212,6.036-8.838,11.372-8.821l202.734,0.648C1718.272,2603.603,1721.363,2606.43,1721.74,2610.144z"/>
						<path style="fill:#7D97F4;" d="M1703.358,2691.937c0,0-118.465,18.996-184.253,0l-1.001-5.808l-3.507,3.687        c-1.693,1.78-2.432,4.275-1.987,6.702l19.259,105.011c0,0,82.974,19.947,157.849,1.275l18.701-106.264        c0.598-2.923-0.095-5.964-1.896-8.33l-2.102-2.76L1703.358,2691.937z"/>
						<path style="fill:none;" d="M1626.428,2807.01c-1.241-0.022-2.23-1.051-2.208-2.289l1.78-96.028        c0.024-1.248,1.051-2.285,2.292-2.21c1.241,0.022,2.23,1.05,2.208,2.289l-1.78,96.028c-0.024,1.23-1.026,2.211-2.25,2.211        H1626.428z M1603.727,2806.729c-1.241-0.022-2.23-1.051-2.208-2.289l1.76-94.951c0.024-1.244,1.094-2.259,2.292-2.21        c1.241,0.022,2.23,1.05,2.208,2.289l-1.76,94.951c-0.024,1.23-1.026,2.21-2.25,2.21H1603.727z M1649.146,2805.688        c-1.242-0.022-2.23-1.05-2.208-2.289l1.782-96.239c0.024-1.243,1.009-2.403,2.292-2.21c1.241,0.022,2.23,1.05,2.208,2.289        l-1.782,96.239c-0.024,1.231-1.026,2.21-2.25,2.21H1649.146z M1576.76,2805.055c-1.241-0.021-2.23-1.05-2.208-2.289        l1.731-93.506c0.024-1.243,1.081-2.03,2.292-2.21c1.242,0.022,2.23,1.05,2.208,2.289l-1.731,93.506        c-0.024,1.231-1.026,2.21-2.25,2.21H1576.76z M1667.002,2803.539c-1.241-0.026-2.225-1.059-2.199-2.299l2.114-95.791        c0.029-1.239,0.892-2.162,2.3-2.201c1.241,0.026,2.225,1.059,2.199,2.298l-2.114,95.791c-0.029,1.226-1.029,2.202-2.25,2.202        H1667.002z M1550.763,2799.663l-6.789-92.838c-0.092-1.239,0.84-2.316,2.078-2.408c1.286-0.119,2.318,0.844,2.408,2.083        l6.789,92.837c0.092,1.24-0.839,2.316-2.078,2.408c-0.057,0.004-0.112,0.004-0.167,0.004        C1551.835,2801.75,1550.849,2800.85,1550.763,2799.663z M1680.328,2801.118c-1.237-0.105-2.155-1.195-2.05-2.43l8.143-95.786        c0.105-1.239,1.173-2.149,2.432-2.052c1.237,0.105,2.155,1.195,2.05,2.43l-8.143,95.786c-0.099,1.173-1.083,2.061-2.239,2.061        C1680.458,2801.126,1680.394,2801.122,1680.328,2801.118z M1533.111,2796.556l-11.693-93.879        c-0.154-1.23,0.72-2.355,1.953-2.509c1.237-0.185,2.36,0.725,2.511,1.955l11.693,93.879c0.154,1.23-0.721,2.355-1.953,2.509        c-0.095,0.013-0.189,0.018-0.281,0.018C1534.223,2798.53,1533.252,2797.694,1533.111,2796.556z"/>
					</g>
					
						<linearGradient id="SVGID_00000091006020954447529020000010085538377063883684_" gradientUnits="userSpaceOnUse" x1="-3056.2954" y1="2807.092" x2="-2980.0095" y2="2807.092" gradientTransform="matrix(-1 0 0 1 -1339.3429 0)">
						<stop offset="0" style="stop-color:#A22B25"/>
						<stop offset="1" style="stop-color:#C0423C"/>
					</linearGradient>
					<path style="fill:url(#SVGID_00000091006020954447529020000010085538377063883684_);" d="M1708.629,2753.577       c0,0-36.532-22.47-60.667-5.459c-22.993,16.206,14.512,113.949,28.012,123.493       C1689.472,2881.155,1735.627,2805.324,1708.629,2753.577z"/>
				</g>
			</g>
		</g>
		<g>
			<circle style="fill:none;" cx="1940.917" cy="1102.274" r="502.001"/>
			<g>
				<g>
					<path style="fill:#7D97F4;" d="M2518.807,972.153l-56.301-15.54c-15.225-4.203-27.273-15.676-32.559-30.56       c-13.306-37.446-30.762-72.82-51.78-105.618c-8.536-13.319-10.235-29.888-4.211-44.516l22.26-54.063       c9.38-22.785,3.275-49.014-15.207-65.31l-55.179-48.656c-18.486-16.298-45.274-19.074-66.706-6.913l-50.848,28.85       c-13.758,7.807-30.41,8.195-44.692,1.393c-35.172-16.748-72.455-29.64-111.271-38.152c-15.427-3.384-28.32-13.9-34.394-28.48       l-22.465-53.914c-9.476-22.747-32.341-36.974-56.934-35.429l-73.424,4.614c-24.592,1.545-45.497,18.523-52.054,42.276       l-15.54,56.301c-4.201,15.225-15.676,27.272-30.559,32.56c-37.446,13.303-72.82,30.761-105.62,51.781       c-13.319,8.536-29.888,10.234-44.515,4.211l-54.061-22.259c-22.786-9.383-49.017-3.275-65.315,15.208l-48.652,55.178       c-16.298,18.483-19.074,45.27-6.915,66.703l28.851,50.849c7.807,13.759,8.194,30.41,1.395,44.692       c-16.75,35.172-29.642,72.454-38.154,111.27c-3.383,15.429-13.9,28.32-28.48,34.395l-53.915,22.465       c-22.743,9.477-36.971,32.341-35.425,56.933l4.613,73.425c1.546,24.592,18.521,45.498,42.275,52.054l56.301,15.541       c15.225,4.202,27.273,15.675,32.559,30.558c13.305,37.446,30.762,72.82,51.78,105.62c8.536,13.318,10.235,29.887,4.211,44.514       l-22.26,54.062c-9.381,22.787-3.272,49.017,15.211,65.314l55.177,48.653c18.483,16.299,45.271,19.075,66.703,6.914       l50.848-28.851c13.76-7.807,30.409-8.195,44.694-1.395c35.17,16.749,72.452,29.642,111.268,38.155       c15.427,3.384,28.32,13.899,34.395,28.479l22.465,53.912c9.479,22.746,32.344,36.975,56.937,35.43l73.421-4.613       c24.593-1.545,45.498-18.523,52.055-42.276l15.54-56.3c4.204-15.225,15.676-27.273,30.558-32.56       c37.447-13.306,72.821-30.762,105.621-51.781c13.319-8.536,29.888-10.234,44.514-4.211l54.061,22.261       c22.786,9.382,49.017,3.274,65.315-15.209l48.653-55.178c16.298-18.483,19.074-45.271,6.915-66.704l-28.851-50.849       c-7.808-13.759-8.197-30.409-1.395-44.691c16.749-35.172,29.642-72.454,38.154-111.271c3.384-15.428,13.9-28.32,28.48-34.394       l53.912-22.465c22.746-9.478,36.977-32.344,35.431-56.937l-4.612-73.42C2559.539,999.614,2542.561,978.709,2518.807,972.153z        M2010.684,1522.411c-233.275,38.531-453.62-119.339-492.152-352.615c-38.532-233.276,119.34-453.62,352.615-492.151       c233.278-38.533,453.62,119.339,492.151,352.615C2401.832,1263.536,2243.962,1483.878,2010.684,1522.411z"/>
				</g>
			</g>
			<g>
				<defs>
					<path id="SVGID_00000032620568891142997980000006235091741009683387_" d="M1688.578,1507.912       c176.791,34.431,909.749,36.532,1016.572-98.214c43.453-54.811-306.068-197.122-290.573-270.19       c53.589-252.693-104.395-451.997-357.087-505.586c-252.695-53.589-514.749,54.573-568.338,307.266       c-23.911,112.748-50.703,320.266,0,414.358C1552.087,1472.334,1548.157,1480.564,1688.578,1507.912z"/>
				</defs>
				<clipPath id="SVGID_00000138554401033789794930000014795168172345059501_">
					<use xlink:href="#SVGID_00000032620568891142997980000006235091741009683387_" style="overflow:visible;"/>
				</clipPath>
				<g style="clip-path:url(#SVGID_00000138554401033789794930000014795168172345059501_);">
					
						<linearGradient id="SVGID_00000115502443838314503980000015928831323611910821_" gradientUnits="userSpaceOnUse" x1="2493.5198" y1="1045.9945" x2="1895.269" y2="1435.8657">
						<stop offset="0" style="stop-color:#FF928E"/>
						<stop offset="1" style="stop-color:#FE7062"/>
					</linearGradient>
					<path style="fill:url(#SVGID_00000115502443838314503980000015928831323611910821_);" d="M1998.385,1018.07       c0,0,185.028,334.586,450.112,358.793l14.131,39.859c0,0-365.289,71.336-552.411-229.587L1998.385,1018.07z"/>
					
						<linearGradient id="SVGID_00000046322802095899351850000005848787595162307740_" gradientUnits="userSpaceOnUse" x1="5582.4897" y1="1873.7698" x2="5801.4536" y2="1873.7698" gradientTransform="matrix(0.996 -0.0899 0.0899 0.996 -3286.728 40.6445)">
						<stop offset="0" style="stop-color:#FEBBBA"/>
						<stop offset="1" style="stop-color:#FF928E"/>
					</linearGradient>
					<path style="fill:url(#SVGID_00000046322802095899351850000005848787595162307740_);" d="M2443.193,1400.062       c-8.232-16.687,3.386-36.844,21.991-37.133c0.914-0.014,1.857-0.004,2.832,0.032c31.192,1.165,62.813-3.643,74.496-11.636       c3.875-2.651,9.379-1.914,11.848,2.08c3.227,5.218,0.67,14.071-28.884,26.954c0,0,65.406,25.492,118.081,0.456       c51.347-24.404-22.829,104.796-179.028,42.798c-7.854-3.117-14.226-9.139-17.964-16.716L2443.193,1400.062z"/>
					
						<linearGradient id="SVGID_00000088112886247890682000000018160891986293259431_" gradientUnits="userSpaceOnUse" x1="2391.0466" y1="888.751" x2="1792.7966" y2="1278.6218">
						<stop offset="0" style="stop-color:#FF928E"/>
						<stop offset="1" style="stop-color:#FE7062"/>
					</linearGradient>
					<path style="fill:url(#SVGID_00000088112886247890682000000018160891986293259431_);" d="M1937.3,1563.198       c0,0,171.527-469.907,36.492-576.639c0,0-202.383-32.651-349.542,23.157l16.79,430.914       C1641.039,1440.63,1749.028,1630.48,1937.3,1563.198z"/>
					
						<linearGradient id="SVGID_00000140726193539345813090000013099363652054489266_" gradientUnits="userSpaceOnUse" x1="-4643.0532" y1="902.6052" x2="-4459.2173" y2="902.6052" gradientTransform="matrix(-1 0 0 1 -2709.3416 0)">
						<stop offset="0" style="stop-color:#FEBBBA"/>
						<stop offset="1" style="stop-color:#FF928E"/>
					</linearGradient>
					<path style="fill:url(#SVGID_00000140726193539345813090000013099363652054489266_);" d="M1933.712,887.213       c0,0-26.29,63.856-32.988,114.061c-1.967,14.736-13.365,26.337-28.03,28.774c-31.423,5.22-83.508,8.132-115.201-20.784       c-7.032-6.416-9.419-16.498-6.218-25.462c13.054-36.54,80.915-188.68,117.889-212.007L1933.712,887.213z"/>
					<g>
						
							<linearGradient id="SVGID_00000151513185848018420690000004012319497681331330_" gradientUnits="userSpaceOnUse" x1="-4646.6411" y1="1432.3514" x2="-4277.8643" y2="1432.3514" gradientTransform="matrix(-1 0 0 1 -2709.3416 0)">
							<stop offset="0" style="stop-color:#FEBBBA"/>
							<stop offset="1" style="stop-color:#FF928E"/>
						</linearGradient>
						<path style="fill:url(#SVGID_00000151513185848018420690000004012319497681331330_);" d="M1666.069,1356.79        c-0.004,0.273-0.021,0.562-0.021,0.832c-0.555,79.47,106.916,87.066,106.916,87.066s30.735-51.096,70.172-52.762        c39.439-1.667,94.164,62.575,94.164,62.575l-87.513,14.016c0,0-166.885,100.1-281.264-18.82        C1588.743,1375.637,1636.933,1359.454,1666.069,1356.79z"/>
						
							<linearGradient id="SVGID_00000088854165874729980110000012289124666397532084_" gradientUnits="userSpaceOnUse" x1="2310.1213" y1="764.5748" x2="1711.87" y2="1154.4464">
							<stop offset="0" style="stop-color:#FF928E"/>
							<stop offset="1" style="stop-color:#FE7062"/>
						</linearGradient>
						<path style="fill:url(#SVGID_00000088854165874729980110000012289124666397532084_);" d="M1624.25,1009.715        c108.433,38.449,92.74,123.604,92.74,123.604s-50.035,143.831-50.921,223.471c-29.136,2.664-77.326,18.846-97.546,92.906        c-2.714-2.822-5.41-5.726-8.061-8.799C1423.752,1282.495,1624.25,1009.715,1624.25,1009.715z"/>
						
							<linearGradient id="SVGID_00000091013486243148224920000013018579024315161760_" gradientUnits="userSpaceOnUse" x1="-4466.1167" y1="1234.9465" x2="-3981.2043" y2="1369.8788" gradientTransform="matrix(-1 0 0 1 -2709.3416 0)">
							<stop offset="0" style="stop-color:#E1473D"/>
							<stop offset="1" style="stop-color:#E9605A"/>
						</linearGradient>
						<path style="fill:url(#SVGID_00000091013486243148224920000013018579024315161760_);" d="M1666.069,1361.006        c2.306,0,4.192-1.857,4.216-4.169c0.688-61.969,31.567-163.642,44.81-204.478c0.72-2.216-0.494-4.594-2.71-5.312        c-2.24-0.715-4.595,0.496-5.312,2.709c-13.362,41.205-44.518,143.858-45.222,206.986c-0.025,2.329,1.841,4.237,4.171,4.264        H1666.069z"/>
					</g>
					<g>
						
							<linearGradient id="SVGID_00000161626662541398520020000016383684826551147681_" gradientUnits="userSpaceOnUse" x1="17194.3379" y1="727.6235" x2="16953.2051" y2="1046.6217" gradientTransform="matrix(1 0 0 1 -15189.3906 0)">
							<stop offset="0" style="stop-color:#FEBBBA"/>
							<stop offset="1" style="stop-color:#FF928E"/>
						</linearGradient>
						<path style="fill:url(#SVGID_00000161626662541398520020000016383684826551147681_);" d="M2052.267,726.229        c0,3.179-71.007,201.011-71.007,201.011l-112.097-42.944l39.443-197.503C1908.606,686.793,2052.267,673.008,2052.267,726.229z        "/>
						
							<linearGradient id="SVGID_00000010999619942906291210000005919973965952098991_" gradientUnits="userSpaceOnUse" x1="-4635.8374" y1="560.9173" x2="-4769.7749" y2="1218.0494" gradientTransform="matrix(-1 0 0 1 -2709.3416 0)">
							<stop offset="0" style="stop-color:#09005D"/>
							<stop offset="1" style="stop-color:#1A0F91"/>
						</linearGradient>
						<path style="fill:url(#SVGID_00000010999619942906291210000005919973965952098991_);" d="M1928.269,734.909l-28.905,102.343        c-0.371,1.313-0.56,2.635-0.562,3.998c-0.011,8.347,2.055,37.069,31.313,33.163c26.547-3.544,50.827-6.384,66.267,0.887        c6.932,3.265,10.248,11.243,7.658,18.454c-6.456,17.973-21.753,58.204-40.376,91.128c-3.779,6.681-12.068,9.28-19.056,6.101        c-21.053-9.578-64.89-31.022-96.116-56.534c-4.23-3.458-6.263-8.894-5.256-14.264c4.912-26.181,19.547-105.808,20.192-128.627        c0.606-21.419-23.428-37.77-34.009-43.917c-3.469-2.015-5.937-5.333-6.877-9.233c-3.321-13.786-6.14-44.987,33.658-51.863        c8.329-1.439,13.76-9.412,12.069-17.694c-3.368-16.487-2.291-40.751,29.019-49.687c31.825-9.083,51.849,10.073,62.035,24.762        c4.118,5.939,11.824,7.865,18.423,4.917c3.756-1.679,8.294-1.753,13.171,2.359c6.572,5.541,16.576,3.854,21.406-3.256        c9.28-13.659,26.138-27.293,54.679-18.059c50.645,16.386,48.223,74.777,29.659,106.52        c-18.564,31.744-72.462,10.857-97.977-10.179c-19.4-15.993-48.938-6.426-61.983-0.921        C1932.567,727.052,1929.488,730.593,1928.269,734.909z"/>
						
							<linearGradient id="SVGID_00000160904705981551346130000012236298668892479390_" gradientUnits="userSpaceOnUse" x1="16850.9102" y1="976.7091" x2="17038.4883" y2="784.2586" gradientTransform="matrix(1 0 0 1 -15189.3906 0)">
							<stop offset="0" style="stop-color:#FEBBBA"/>
							<stop offset="1" style="stop-color:#FF928E"/>
						</linearGradient>
						<path style="fill:url(#SVGID_00000160904705981551346130000012236298668892479390_);" d="M1858.932,829.651        c0,0,24.316-57.424,4.496-75.228c-19.82-17.805-47.473-11.692-46.569,32.645        C1817.982,842.219,1858.932,829.651,1858.932,829.651z"/>
					</g>
				</g>
			</g>
		</g>
	</g>
</g>
</svg>
