<?xml version="1.0" encoding="utf-8"?>
<!-- Generator: Adobe Illustrator 27.5.0, SVG Export Plug-In . SVG Version: 6.00 Build 0)  -->
<svg version="1.1" xmlns="http://www.w3.org/2000/svg" xmlns:xlink="http://www.w3.org/1999/xlink" x="0px" y="0px"
	 viewBox="0 0 500 500" style="enable-background:new 0 0 500 500;" xml:space="preserve">
<g id="Background_Simple">
	<g>
		<path style="fill:#92E3A9;" d="M468.076,203.453c-11.686-24.133-25.001-48.08-38.817-70.477
			c-21.401-34.692-49.42-67.213-86.089-87.727C258.104-2.337,160.117,16.283,95.511,71.111S83.666,196.284,71.822,249.043
			c-11.844,52.759-49.532,50.69-59.223,127.242c-9.691,76.552,100.14,122.069,185.205,102.414
			c85.065-19.655,86.142-54.828,158.286-56.897s115.215-23.793,130.29-104.485c5.297-28.352,5.856-59.17-5.71-86.254
			C476.75,221.883,472.531,212.654,468.076,203.453z"/>
		<path style="opacity:0.7;fill:#FFFFFF;" d="M468.076,203.453c-11.686-24.133-25.001-48.08-38.817-70.477
			c-21.401-34.692-49.42-67.213-86.089-87.727C258.104-2.337,160.117,16.283,95.511,71.111S83.666,196.284,71.822,249.043
			c-11.844,52.759-49.532,50.69-59.223,127.242c-9.691,76.552,100.14,122.069,185.205,102.414
			c85.065-19.655,86.142-54.828,158.286-56.897s115.215-23.793,130.29-104.485c5.297-28.352,5.856-59.17-5.71-86.254
			C476.75,221.883,472.531,212.654,468.076,203.453z"/>
	</g>
</g>
<g id="Plants">
	<g>
		<path style="fill:#92E3A9;" d="M45.305,368.107c2.522,1.102,8.692,0.963,8.697,0.963c0.064-0.002-1.326-4.039-1.443-4.284
			c-1.353-2.832-5.635-7.508-9.118-7.037c-2.509,0.339-3.905,2.851-3.338,5.213C40.681,365.376,43.156,367.168,45.305,368.107z"/>
		<path style="fill:#92E3A9;" d="M47.434,385.978c2.617,0.381,8.123-1.215,8.56-1.344c0.869,3.082,2.011,6.175,3.339,9.24
			c0.757,1.754,1.575,3.496,2.416,5.233c-0.502-0.736-0.957-1.39-1.03-1.475c-2.054-2.374-7.418-5.753-10.652-4.379
			c-2.332,0.99-3.014,3.78-1.843,5.909c1.194,2.174,4.057,3.25,6.376,3.588c2.354,0.343,7.075-0.924,8.321-1.276
			c0.33,0.663,0.652,1.328,0.984,1.99c1.594,3.175,3.199,6.336,4.678,9.485c0.522,1.109,0.995,2.221,1.472,3.332
			c-0.447-0.653-0.829-1.199-0.896-1.277c-2.054-2.373-7.417-5.753-10.652-4.379c-2.331,0.99-3.014,3.78-1.843,5.909
			c1.196,2.175,4.057,3.25,6.377,3.588c2.246,0.328,6.615-0.803,8.096-1.214c0.455,1.152,0.912,2.305,1.301,3.442
			c0.248,0.782,0.541,1.518,0.745,2.318c0.22,0.787,0.437,1.567,0.653,2.339c0.36,1.501,0.741,3.049,1.056,4.523
			c0.227,1.023,0.424,2.003,0.625,2.989c-0.507-1.111-1.544-3.264-1.651-3.434c-1.67-2.657-6.459-6.809-9.866-5.942
			c-2.454,0.626-3.551,3.28-2.716,5.562c0.852,2.33,3.517,3.827,5.758,4.512c2.469,0.754,7.933,0.065,8.616-0.026
			c0.327,1.633,0.631,3.224,0.893,4.73c0.586,3.324,1.028,6.303,1.364,8.825h2.304c-0.402-2.609-0.927-5.717-1.621-9.208
			c-0.326-1.659-0.707-3.426-1.116-5.237c0.411-0.163,2.742-1.106,4.807-2.26c1.799,1.948,6.409,4.228,7.005,4.518
			c-0.627,1.543-1.253,3.037-1.865,4.438c-1.274,2.934-2.485,5.535-3.554,7.749h2.491c0.919-2.04,1.929-4.363,2.982-6.938
			c0.644-1.564,1.301-3.248,1.958-4.983c0.661,0.138,6.071,1.237,8.592,0.668c2.286-0.517,5.056-1.811,6.08-4.071
			c1.002-2.213,0.105-4.942-2.296-5.749c-3.331-1.12-8.417,2.665-10.281,5.191c-0.11,0.149-1.122,1.899-1.743,3.013
			c0.265-0.71,0.53-1.398,0.794-2.132c0.533-1.449,1.02-2.911,1.55-4.483c0.23-0.768,0.462-1.543,0.696-2.326
			c0.249-0.772,0.413-1.619,0.626-2.435c0.453-1.903,0.82-3.853,1.145-5.825c1.27,0.462,5.805,2.04,8.154,1.874
			c2.339-0.164,5.272-1.023,6.626-3.103c1.326-2.036,0.853-4.87-1.397-6.031c-3.124-1.611-8.725,1.359-10.949,3.573
			c-0.139,0.138-1.556,1.906-2.316,2.892c0.187-1.187,0.378-2.371,0.528-3.579c0.433-3.485,0.762-7.026,1.106-10.557
			c0.105-1.082,0.222-2.158,0.336-3.237c0.45,0.17,5.8,2.161,8.431,1.976c2.338-0.164,5.272-1.023,6.626-3.103
			c1.326-2.036,0.853-4.87-1.398-6.03c-3.124-1.611-8.724,1.359-10.949,3.573c-0.167,0.167-2.204,2.714-2.69,3.387
			c0.251-2.375,0.523-4.738,0.886-7.058c0.496-3.201,1.16-6.314,2.026-9.282c0.209,0.08,5.783,2.183,8.478,1.994
			c2.339-0.164,5.272-1.024,6.626-3.103c1.326-2.036,0.853-4.869-1.398-6.03c-3.124-1.611-8.724,1.359-10.949,3.573
			c-0.174,0.174-2.364,2.915-2.725,3.441c0.052-0.176,0.087-0.365,0.14-0.54c0.965-3.157,2.296-6.095,3.677-8.784
			c0.799-1.564,1.651-3.015,2.511-4.407c0.998,0.498,5.584,2.725,8.028,2.823c2.342,0.094,5.353-0.438,6.927-2.356
			c1.542-1.878,1.383-4.747-0.727-6.147c-2.928-1.944-8.821,0.393-11.275,2.349c-0.133,0.106-1.37,1.338-2.258,2.248
			c0.398-0.623,0.796-1.273,1.189-1.861c1.47-2.214,2.953-4.152,4.281-5.857c0.762-0.963,1.471-1.819,2.143-2.613
			c1.234-0.021,6.208-0.173,8.382-1.193c2.121-0.997,4.549-2.855,5.062-5.283c0.502-2.377-0.961-4.85-3.478-5.121
			c-3.495-0.377-7.648,4.413-8.925,7.28c-0.11,0.248-1.391,4.322-1.326,4.321c0,0,0.06-0.001,0.075-0.001
			c-0.662,0.751-1.362,1.564-2.109,2.467c-1.367,1.68-2.896,3.589-4.42,5.78c-1.529,2.186-3.129,4.603-4.584,7.301
			c-1.462,2.703-2.862,5.621-3.915,8.814c-0.012,0.036-0.02,0.075-0.032,0.111c0.018-1.03-0.027-3.91-0.056-4.131
			c-0.404-3.113-3.012-8.89-6.469-9.529c-2.49-0.46-4.599,1.491-4.798,3.912c-0.202,2.473,1.591,4.948,3.339,6.51
			c1.972,1.761,7.445,3.467,7.881,3.602c-0.976,3.05-1.729,6.259-2.312,9.548c-0.335,1.881-0.615,3.785-0.871,5.698
			c-0.013-0.891-0.031-1.688-0.046-1.798c-0.404-3.113-3.012-8.89-6.469-9.529c-2.49-0.461-4.599,1.491-4.797,3.912
			c-0.203,2.473,1.59,4.948,3.339,6.51c1.774,1.584,6.411,3.133,7.644,3.526c-0.09,0.735-0.189,1.468-0.277,2.203
			c-0.422,3.527-0.827,7.049-1.33,10.491c-0.176,1.213-0.395,2.401-0.61,3.591c-0.012-0.791-0.03-1.457-0.042-1.558
			c-0.404-3.113-3.012-8.89-6.468-9.529c-2.491-0.46-4.6,1.491-4.798,3.913c-0.203,2.472,1.591,4.948,3.34,6.51
			c1.692,1.512,5.96,2.98,7.423,3.454c-0.256,1.212-0.511,2.426-0.814,3.589c-0.225,0.789-0.387,1.564-0.657,2.345
			c-0.251,0.777-0.499,1.548-0.745,2.31c-0.529,1.451-1.064,2.952-1.614,4.355c-0.376,0.979-0.752,1.904-1.128,2.837
			c0.19-1.206,0.512-3.573,0.517-3.774c0.048-2.085-0.692-5.474-2.166-7.857c0.009-0.308-0.008-0.615-0.057-0.92
			c-0.386-2.399-2.639-4.181-5.087-3.529c-3.396,0.904-5.551,6.866-5.711,10.001c-0.01,0.185,0.112,2.203,0.209,3.475
			c-0.172-0.739-0.328-1.458-0.514-2.216c-0.356-1.502-0.756-2.991-1.18-4.595c-0.232-0.767-0.467-1.541-0.703-2.324
			c-0.218-0.78-0.548-1.578-0.821-2.376c-0.672-1.836-1.442-3.666-2.258-5.49c1.315-0.315,5.967-1.501,7.836-2.935
			c1.86-1.427,3.832-3.762,3.815-6.243c-0.018-2.43-1.974-4.533-4.492-4.259c-3.494,0.379-6.527,5.946-7.162,9.02
			c-0.039,0.192-0.246,2.449-0.336,3.691c-0.5-1.093-0.993-2.187-1.534-3.276c-1.561-3.146-3.24-6.281-4.901-9.416
			c-0.509-0.96-1.005-1.923-1.505-2.884c0.469-0.108,6.03-1.398,8.123-3.003c1.86-1.427,3.832-3.762,3.815-6.243
			c-0.017-2.429-1.975-4.532-4.492-4.258c-3.495,0.379-6.527,5.946-7.162,9.02c-0.048,0.232-0.341,3.479-0.375,4.309
			c-1.101-2.118-2.178-4.24-3.155-6.375c-1.352-2.943-2.516-5.906-3.431-8.859c0.219-0.05,6.028-1.37,8.172-3.015
			c1.86-1.427,3.833-3.762,3.814-6.243c-0.017-2.429-1.974-4.532-4.492-4.258c-3.494,0.379-6.527,5.946-7.161,9.02
			c-0.05,0.242-0.363,3.736-0.375,4.373c-0.054-0.176-0.13-0.351-0.182-0.527c-0.936-3.167-1.447-6.351-1.778-9.356
			c-0.196-1.745-0.285-3.425-0.336-5.061c1.107-0.135,6.161-0.808,8.253-2.075c2.006-1.214,4.223-3.318,4.478-5.786
			c0.249-2.417-1.466-4.722-3.997-4.727c-3.515-0.007-7.141,5.194-8.109,8.179c-0.053,0.163-0.405,1.872-0.644,3.121
			c-0.012-0.739-0.038-1.501-0.034-2.209c0.005-2.658,0.173-5.092,0.339-7.246c0.104-1.225,0.223-2.329,0.346-3.362
			c1.017-0.7,5.082-3.569,6.333-5.62c1.22-2.002,2.218-4.891,1.307-7.198c-0.892-2.26-3.477-3.515-5.726-2.353
			c-3.123,1.614-3.944,7.9-3.428,10.996c0.045,0.267,1.225,4.371,1.278,4.336c0,0,0.05-0.034,0.061-0.042
			c-0.138,0.991-0.273,2.056-0.398,3.221c-0.214,2.155-0.436,4.591-0.498,7.26c-0.069,2.666-0.07,5.565,0.205,8.619
			c0.272,3.061,0.714,6.267,1.597,9.511c0.01,0.037,0.025,0.074,0.036,0.11c-0.553-0.869-2.181-3.246-2.327-3.414
			c-2.053-2.374-7.417-5.753-10.652-4.379c-2.331,0.99-3.014,3.781-1.843,5.91C42.254,384.565,45.115,385.64,47.434,385.978z"/>
		<path style="fill:#92E3A9;" d="M107.709,369.464c0.054,0.034,1.122-4.1,1.16-4.369c0.432-3.109-0.559-9.37-3.724-10.899
			c-2.28-1.102-4.829,0.223-5.659,2.507c-0.849,2.331,0.227,5.192,1.501,7.16C102.482,366.174,107.705,369.461,107.709,369.464z"/>
	</g>
	<g>
		<path style="fill:#92E3A9;" d="M122.283,397.566c1.601,0.699,5.517,0.611,5.52,0.611c0.04-0.001-0.842-2.564-0.916-2.719
			c-0.859-1.798-3.576-4.765-5.787-4.466c-1.592,0.215-2.478,1.809-2.119,3.309C119.348,395.832,120.919,396.97,122.283,397.566z"/>
		<path style="fill:#92E3A9;" d="M123.634,408.908c1.661,0.242,5.155-0.771,5.433-0.853c0.552,1.956,1.276,3.919,2.119,5.865
			c0.481,1.113,0.999,2.219,1.534,3.321c-0.319-0.467-0.607-0.882-0.654-0.936c-1.304-1.507-4.708-3.651-6.761-2.779
			c-1.48,0.628-1.913,2.399-1.17,3.751c0.758,1.38,2.575,2.063,4.047,2.277c1.494,0.218,4.491-0.586,5.281-0.81
			c0.209,0.421,0.413,0.843,0.625,1.263c1.012,2.015,2.03,4.021,2.969,6.02c0.331,0.704,0.631,1.41,0.935,2.115
			c-0.284-0.415-0.526-0.761-0.568-0.811c-1.303-1.506-4.707-3.651-6.761-2.779c-1.479,0.628-1.913,2.399-1.17,3.751
			c0.759,1.38,2.575,2.063,4.047,2.277c1.426,0.208,4.198-0.509,5.139-0.77c0.289,0.731,0.579,1.463,0.826,2.185
			c0.157,0.497,0.344,0.964,0.473,1.471c0.14,0.5,0.278,0.995,0.414,1.484c0.229,0.953,0.471,1.935,0.67,2.871
			c0.144,0.65,0.269,1.271,0.397,1.897c-0.322-0.705-0.98-2.071-1.048-2.179c-1.06-1.687-4.1-4.322-6.262-3.771
			c-1.557,0.397-2.254,2.082-1.724,3.53c0.541,1.479,2.232,2.429,3.655,2.864c1.567,0.479,5.035,0.041,5.468-0.016
			c0.208,1.036,0.4,2.046,0.566,3.002c0.372,2.11,0.653,4.001,0.866,5.601h1.462c-0.255-1.656-0.588-3.629-1.029-5.844
			c-0.207-1.053-0.449-2.174-0.708-3.324c0.261-0.104,1.74-0.702,3.051-1.435c1.142,1.237,4.068,2.684,4.446,2.868
			c-0.398,0.979-0.795,1.928-1.184,2.817c-0.809,1.862-1.577,3.513-2.256,4.918h1.581c0.583-1.295,1.224-2.77,1.893-4.404
			c0.409-0.992,0.825-2.061,1.243-3.163c0.42,0.088,3.853,0.785,5.453,0.424c1.451-0.328,3.209-1.149,3.859-2.584
			c0.636-1.404,0.067-3.137-1.457-3.649c-2.114-0.711-5.342,1.691-6.525,3.294c-0.07,0.094-0.712,1.205-1.106,1.912
			c0.168-0.451,0.336-0.887,0.504-1.353c0.338-0.92,0.647-1.848,0.984-2.845c0.146-0.487,0.293-0.98,0.442-1.477
			c0.158-0.49,0.262-1.027,0.397-1.545c0.288-1.208,0.52-2.445,0.727-3.697c0.806,0.293,3.684,1.295,5.175,1.19
			c1.484-0.104,3.346-0.65,4.205-1.969c0.842-1.292,0.541-3.091-0.887-3.828c-1.983-1.022-5.538,0.863-6.949,2.268
			c-0.088,0.087-0.988,1.21-1.47,1.836c0.118-0.753,0.24-1.505,0.335-2.271c0.275-2.212,0.484-4.459,0.702-6.701
			c0.066-0.687,0.141-1.37,0.213-2.054c0.286,0.108,3.681,1.372,5.351,1.254c1.484-0.104,3.346-0.649,4.205-1.969
			c0.842-1.292,0.541-3.091-0.887-3.827c-1.983-1.023-5.537,0.862-6.949,2.268c-0.106,0.106-1.399,1.723-1.708,2.15
			c0.159-1.507,0.332-3.007,0.562-4.48c0.315-2.031,0.736-4.007,1.286-5.891c0.133,0.05,3.671,1.385,5.381,1.266
			c1.484-0.104,3.346-0.65,4.206-1.97c0.842-1.292,0.541-3.09-0.887-3.827c-1.983-1.022-5.537,0.863-6.949,2.268
			c-0.11,0.11-1.5,1.85-1.73,2.184c0.033-0.112,0.055-0.232,0.089-0.343c0.612-2.004,1.457-3.868,2.334-5.575
			c0.507-0.993,1.048-1.913,1.594-2.797c0.634,0.316,3.544,1.73,5.095,1.792c1.487,0.059,3.397-0.278,4.396-1.496
			c0.978-1.192,0.878-3.013-0.461-3.902c-1.859-1.234-5.598,0.249-7.156,1.491c-0.085,0.067-0.87,0.849-1.433,1.427
			c0.252-0.395,0.505-0.808,0.755-1.181c0.933-1.405,1.874-2.635,2.717-3.717c0.484-0.611,0.933-1.155,1.36-1.659
			c0.783-0.014,3.94-0.11,5.32-0.757c1.346-0.633,2.887-1.812,3.213-3.353c0.319-1.509-0.61-3.078-2.207-3.25
			c-2.218-0.239-4.854,2.801-5.664,4.621c-0.07,0.158-0.883,2.743-0.842,2.743c0,0,0.038,0,0.048-0.001
			c-0.42,0.477-0.865,0.993-1.339,1.566c-0.868,1.066-1.838,2.278-2.805,3.669c-0.971,1.387-1.986,2.922-2.909,4.634
			c-0.928,1.716-1.816,3.568-2.485,5.594c-0.008,0.023-0.012,0.048-0.02,0.071c0.012-0.654-0.017-2.482-0.036-2.622
			c-0.256-1.976-1.912-5.643-4.106-6.048c-1.58-0.292-2.919,0.946-3.045,2.483c-0.128,1.57,1.01,3.141,2.12,4.132
			c1.251,1.118,4.725,2.2,5.002,2.286c-0.619,1.936-1.097,3.973-1.468,6.06c-0.213,1.194-0.39,2.402-0.553,3.617
			c-0.008-0.566-0.02-1.071-0.029-1.141c-0.256-1.976-1.912-5.642-4.106-6.048c-1.581-0.292-2.919,0.946-3.045,2.483
			c-0.129,1.57,1.009,3.14,2.119,4.132c1.126,1.006,4.069,1.988,4.851,2.238c-0.057,0.466-0.12,0.932-0.176,1.398
			c-0.268,2.239-0.525,4.474-0.844,6.659c-0.112,0.77-0.251,1.524-0.387,2.279c-0.008-0.502-0.019-0.925-0.027-0.989
			c-0.256-1.976-1.912-5.642-4.105-6.048c-1.581-0.292-2.919,0.946-3.046,2.483c-0.129,1.569,1.01,3.141,2.12,4.132
			c1.074,0.96,3.783,1.891,4.711,2.192c-0.163,0.769-0.325,1.539-0.517,2.278c-0.143,0.501-0.246,0.993-0.417,1.488
			c-0.159,0.493-0.317,0.982-0.473,1.466c-0.335,0.921-0.675,1.874-1.025,2.764c-0.239,0.621-0.478,1.209-0.716,1.801
			c0.12-0.765,0.325-2.268,0.328-2.395c0.03-1.323-0.439-3.475-1.375-4.987c0.006-0.195-0.005-0.39-0.036-0.584
			c-0.245-1.523-1.675-2.653-3.228-2.24c-2.156,0.574-3.523,4.358-3.625,6.347c-0.006,0.117,0.071,1.398,0.132,2.205
			c-0.109-0.469-0.208-0.926-0.326-1.407c-0.226-0.953-0.48-1.898-0.749-2.916c-0.147-0.487-0.296-0.978-0.446-1.475
			c-0.138-0.495-0.348-1.001-0.521-1.508c-0.426-1.166-0.915-2.327-1.433-3.485c0.835-0.2,3.787-0.953,4.973-1.863
			c1.181-0.906,2.432-2.388,2.421-3.962c-0.011-1.542-1.253-2.877-2.851-2.703c-2.218,0.241-4.143,3.774-4.545,5.725
			c-0.025,0.122-0.156,1.554-0.213,2.342c-0.317-0.694-0.63-1.388-0.974-2.08c-0.991-1.997-2.056-3.986-3.111-5.976
			c-0.323-0.609-0.638-1.22-0.956-1.831c0.298-0.068,3.827-0.887,5.156-1.906c1.18-0.906,2.432-2.388,2.421-3.962
			c-0.011-1.542-1.254-2.877-2.851-2.703c-2.218,0.241-4.143,3.774-4.545,5.725c-0.03,0.147-0.216,2.208-0.238,2.735
			c-0.699-1.344-1.382-2.691-2.002-4.046c-0.858-1.868-1.597-3.749-2.178-5.623c0.139-0.032,3.826-0.87,5.187-1.913
			c1.181-0.906,2.433-2.388,2.421-3.963c-0.011-1.542-1.253-2.876-2.851-2.703c-2.218,0.241-4.143,3.774-4.545,5.725
			c-0.032,0.153-0.231,2.371-0.238,2.775c-0.035-0.111-0.082-0.223-0.115-0.335c-0.594-2.01-0.918-4.031-1.129-5.938
			c-0.124-1.108-0.181-2.174-0.213-3.212c0.703-0.086,3.91-0.513,5.238-1.317c1.273-0.771,2.68-2.106,2.842-3.672
			c0.158-1.534-0.93-2.997-2.537-3c-2.231-0.004-4.532,3.296-5.146,5.191c-0.034,0.103-0.257,1.188-0.409,1.981
			c-0.007-0.469-0.024-0.953-0.022-1.402c0.003-1.687,0.11-3.232,0.215-4.599c0.066-0.777,0.142-1.479,0.219-2.134
			c0.645-0.444,3.225-2.265,4.019-3.567c0.775-1.271,1.408-3.104,0.83-4.569c-0.566-1.435-2.206-2.231-3.634-1.493
			c-1.982,1.024-2.503,5.014-2.176,6.979c0.029,0.17,0.777,2.774,0.811,2.752c0,0,0.032-0.022,0.039-0.027
			c-0.087,0.629-0.173,1.305-0.252,2.045c-0.136,1.368-0.277,2.914-0.316,4.608c-0.044,1.692-0.044,3.532,0.13,5.47
			c0.173,1.943,0.453,3.978,1.014,6.037c0.006,0.023,0.016,0.047,0.022,0.07c-0.351-0.551-1.384-2.06-1.477-2.167
			c-1.303-1.507-4.707-3.651-6.761-2.78c-1.479,0.629-1.913,2.4-1.17,3.751C120.346,408.012,122.162,408.694,123.634,408.908z"/>
		<path style="fill:#92E3A9;" d="M161.89,398.427c0.035,0.022,0.712-2.603,0.736-2.773c0.275-1.973-0.355-5.947-2.363-6.918
			c-1.447-0.699-3.065,0.142-3.592,1.591c-0.539,1.48,0.144,3.296,0.953,4.545C158.573,396.339,161.888,398.425,161.89,398.427z"/>
	</g>
</g>
<g id="Tree">
	<g>
		<path style="fill:#92E3A9;" d="M373.244,449.831h84.255c-1.618-10.308-8.237-8.494-9.114-24.462
			c-0.442-8.042,7-17.994,6.357-28.56c-0.53-8.702-9.111-17.624-9.777-27.579c-0.601-8.984,6.722-18.954,6.011-28.636
			c-0.672-9.154-9.369-17.936-10.139-27.449c-0.751-9.281,6.42-19.353,5.576-28.734c-0.845-9.39-9.7-18.008-10.637-27.257
			c-0.964-9.509,5.974-19.747,4.913-28.849c-1.127-9.661-10.242-18.005-11.478-26.904c-1.376-9.91,5.08-20.497,3.569-29.053
			c-1.851-10.484-11.608-18.068-13.66-25.799c-3.825-14.409-3.348-28.297-7.863-29.2c-4.823-0.965-5.921,12.648-9.576,27.866
			c-1.836,7.643-11.378,15.389-12.945,25.878c-1.27,8.493,5.475,18.821,4.37,28.691c-0.99,8.837-9.873,17.334-10.738,26.941
			c-0.814,9.036,6.398,19.002,5.689,28.45c-0.69,9.182-9.311,17.943-9.907,27.27c-0.595,9.306,6.84,19.1,6.333,28.311
			c-0.52,9.439-8.984,18.353-9.418,27.437c-0.459,9.604,7.12,19.295,6.752,28.209c-0.408,9.873-8.757,18.922-9.064,27.554
			c-0.372,10.478,7.322,20.15,7.085,28.126c-0.515,17.317-8.443,13.73-8.728,27.665L373.244,449.831z"/>
		<path style="opacity:0.3;fill:#FFFFFF;" d="M373.244,449.831h84.255c-1.618-10.308-8.237-8.494-9.114-24.462
			c-0.442-8.042,7-17.994,6.357-28.56c-0.53-8.702-9.111-17.624-9.777-27.579c-0.601-8.984,6.722-18.954,6.011-28.636
			c-0.672-9.154-9.369-17.936-10.139-27.449c-0.751-9.281,6.42-19.353,5.576-28.734c-0.845-9.39-9.7-18.008-10.637-27.257
			c-0.964-9.509,5.974-19.747,4.913-28.849c-1.127-9.661-10.242-18.005-11.478-26.904c-1.376-9.91,5.08-20.497,3.569-29.053
			c-1.851-10.484-11.608-18.068-13.66-25.799c-3.825-14.409-3.348-28.297-7.863-29.2c-4.823-0.965-5.921,12.648-9.576,27.866
			c-1.836,7.643-11.378,15.389-12.945,25.878c-1.27,8.493,5.475,18.821,4.37,28.691c-0.99,8.837-9.873,17.334-10.738,26.941
			c-0.814,9.036,6.398,19.002,5.689,28.45c-0.69,9.182-9.311,17.943-9.907,27.27c-0.595,9.306,6.84,19.1,6.333,28.311
			c-0.52,9.439-8.984,18.353-9.418,27.437c-0.459,9.604,7.12,19.295,6.752,28.209c-0.408,9.873-8.757,18.922-9.064,27.554
			c-0.372,10.478,7.322,20.15,7.085,28.126c-0.515,17.317-8.443,13.73-8.728,27.665L373.244,449.831z"/>
		
			<line style="fill:none;stroke:#263238;stroke-linecap:round;stroke-linejoin:round;stroke-miterlimit:10;" x1="409.413" y1="145.043" x2="409.413" y2="445.941"/>
		<polyline style="fill:none;stroke:#263238;stroke-linecap:round;stroke-linejoin:round;stroke-miterlimit:10;" points="
			422.569,176.586 408.852,188.433 397.629,173.469 		"/>
		<polyline style="fill:none;stroke:#263238;stroke-linecap:round;stroke-linejoin:round;stroke-miterlimit:10;" points="
			422.569,228.96 408.852,240.807 397.629,225.843 		"/>
		<polyline style="fill:none;stroke:#263238;stroke-linecap:round;stroke-linejoin:round;stroke-miterlimit:10;" points="
			422.569,278.217 408.852,290.064 397.629,275.099 		"/>
		<polyline style="fill:none;stroke:#263238;stroke-linecap:round;stroke-linejoin:round;stroke-miterlimit:10;" points="
			422.569,336.826 408.852,348.673 397.629,333.708 		"/>
		<polyline style="fill:none;stroke:#263238;stroke-linecap:round;stroke-linejoin:round;stroke-miterlimit:10;" points="
			422.569,396.059 408.852,407.905 397.629,392.941 		"/>
	</g>
	<g>
		<path style="fill:#92E3A9;" d="M287.569,449.831h84.255c-1.618-10.308-8.237-8.494-9.114-24.462
			c-0.442-8.042,7-17.994,6.357-28.56c-0.53-8.702-9.111-17.624-9.777-27.579c-0.601-8.984,6.722-18.954,6.011-28.636
			c-0.672-9.154-9.369-17.936-10.139-27.449c-0.751-9.281,6.42-19.353,5.576-28.734c-0.845-9.39-9.7-18.008-10.637-27.257
			c-0.964-9.509,5.974-19.747,4.913-28.849c-1.127-9.661-10.242-18.005-11.478-26.904c-1.376-9.91,5.08-20.497,3.569-29.053
			c-1.851-10.484-11.607-18.068-13.66-25.799c-3.825-14.409-3.348-28.297-7.863-29.2c-4.823-0.965-5.921,12.648-9.576,27.866
			c-1.836,7.643-11.378,15.389-12.945,25.878c-1.27,8.493,5.475,18.821,4.37,28.691c-0.99,8.837-9.873,17.334-10.738,26.941
			c-0.814,9.036,6.398,19.002,5.689,28.45c-0.69,9.182-9.311,17.943-9.907,27.27c-0.595,9.306,6.84,19.1,6.333,28.311
			c-0.52,9.439-8.984,18.353-9.418,27.437c-0.459,9.604,7.12,19.295,6.752,28.209c-0.408,9.873-8.757,18.922-9.064,27.554
			c-0.372,10.478,7.322,20.15,7.085,28.126c-0.515,17.317-8.443,13.73-8.728,27.665L287.569,449.831z"/>
		<path style="opacity:0.3;fill:#FFFFFF;" d="M287.569,449.831h84.255c-1.618-10.308-8.237-8.494-9.114-24.462
			c-0.442-8.042,7-17.994,6.357-28.56c-0.53-8.702-9.111-17.624-9.777-27.579c-0.601-8.984,6.722-18.954,6.011-28.636
			c-0.672-9.154-9.369-17.936-10.139-27.449c-0.751-9.281,6.42-19.353,5.576-28.734c-0.845-9.39-9.7-18.008-10.637-27.257
			c-0.964-9.509,5.974-19.747,4.913-28.849c-1.127-9.661-10.242-18.005-11.478-26.904c-1.376-9.91,5.08-20.497,3.569-29.053
			c-1.851-10.484-11.607-18.068-13.66-25.799c-3.825-14.409-3.348-28.297-7.863-29.2c-4.823-0.965-5.921,12.648-9.576,27.866
			c-1.836,7.643-11.378,15.389-12.945,25.878c-1.27,8.493,5.475,18.821,4.37,28.691c-0.99,8.837-9.873,17.334-10.738,26.941
			c-0.814,9.036,6.398,19.002,5.689,28.45c-0.69,9.182-9.311,17.943-9.907,27.27c-0.595,9.306,6.84,19.1,6.333,28.311
			c-0.52,9.439-8.984,18.353-9.418,27.437c-0.459,9.604,7.12,19.295,6.752,28.209c-0.408,9.873-8.757,18.922-9.064,27.554
			c-0.372,10.478,7.322,20.15,7.085,28.126c-0.515,17.317-8.443,13.73-8.728,27.665L287.569,449.831z"/>
		
			<line style="fill:none;stroke:#263238;stroke-linecap:round;stroke-linejoin:round;stroke-miterlimit:10;" x1="323.738" y1="145.043" x2="323.738" y2="445.941"/>
		<polyline style="fill:none;stroke:#263238;stroke-linecap:round;stroke-linejoin:round;stroke-miterlimit:10;" points="
			336.895,176.586 323.177,188.433 311.954,173.469 		"/>
		<polyline style="fill:none;stroke:#263238;stroke-linecap:round;stroke-linejoin:round;stroke-miterlimit:10;" points="
			336.895,228.96 323.177,240.807 311.954,225.843 		"/>
		<polyline style="fill:none;stroke:#263238;stroke-linecap:round;stroke-linejoin:round;stroke-miterlimit:10;" points="
			336.895,278.217 323.177,290.064 311.954,275.099 		"/>
		<polyline style="fill:none;stroke:#263238;stroke-linecap:round;stroke-linejoin:round;stroke-miterlimit:10;" points="
			336.895,336.826 323.177,348.673 311.954,333.708 		"/>
		<polyline style="fill:none;stroke:#263238;stroke-linecap:round;stroke-linejoin:round;stroke-miterlimit:10;" points="
			336.895,396.059 323.177,407.905 311.954,392.941 		"/>
	</g>
</g>
<g id="Clouds">
	<g>
		<path style="fill:none;stroke:#263238;stroke-linecap:round;stroke-linejoin:round;stroke-miterlimit:10;" d="M267.95,71.762
			c-1.412-1.465-3.863-2.813-8.112-2.917c-9.553-0.233-6.99,6.524-9.553,8.155c-2.563,1.631-3.262-0.932-5.825,0.699
			c-2.563,1.631-1.398,4.893-3.495,5.359c-2.097,0.466-4.893-2.097-7.456-0.466c-2.563,1.631-2.563,3.029-3.728,3.029
			c-1.165,0-3.495-0.932-4.893,0c-1.398,0.932-3.029,2.097-3.029,2.097h25.017"/>
		<path style="fill:none;stroke:#263238;stroke-linecap:round;stroke-linejoin:round;stroke-miterlimit:10;" d="M270.581,75.934
			c-0.228-0.11-0.469-0.221-0.724-0.331c0,0-0.08-1.125-0.858-2.457"/>
		<path style="fill:none;stroke:#263238;stroke-linecap:round;stroke-linejoin:round;stroke-miterlimit:10;" d="M250.081,87.718
			h30.726c0,0,0.699-2.097-1.864-3.495c-2.563-1.398-3.728-0.233-4.66-1.398c-0.83-1.037,1.851-3.553-2.488-6.23"/>
	</g>
	<g>
		<path style="fill:none;stroke:#263238;stroke-linecap:round;stroke-linejoin:round;stroke-miterlimit:10;" d="M147.554,135.478
			c-1.412-1.465-3.863-2.813-8.112-2.917c-9.553-0.233-6.99,6.524-9.553,8.155c-2.563,1.631-3.262-0.932-5.825,0.699
			c-2.563,1.631-1.398,4.893-3.495,5.359c-2.097,0.466-4.893-2.097-7.456-0.466c-2.563,1.631-2.563,3.029-3.728,3.029
			c-1.165,0-3.495-0.932-4.893,0c-1.398,0.932-3.029,2.097-3.029,2.097h25.017"/>
		<path style="fill:none;stroke:#263238;stroke-linecap:round;stroke-linejoin:round;stroke-miterlimit:10;" d="M150.184,139.65
			c-0.228-0.11-0.469-0.221-0.724-0.331c0,0-0.08-1.125-0.858-2.457"/>
		<path style="fill:none;stroke:#263238;stroke-linecap:round;stroke-linejoin:round;stroke-miterlimit:10;" d="M129.685,151.434
			h30.726c0,0,0.699-2.097-1.864-3.495c-2.563-1.398-3.728-0.233-4.66-1.398c-0.83-1.037,1.851-3.553-2.488-6.23"/>
	</g>
	<g>
		<path style="fill:none;stroke:#263238;stroke-linecap:round;stroke-linejoin:round;stroke-miterlimit:10;" d="M400.432,87.718
			h60.922c0,0,2.076-6.228-5.536-10.38c-7.612-4.151-11.071-0.692-13.839-4.151c-2.768-3.46,7.612-12.456-13.147-21.451
			c0,0-1.383-19.375-29.754-20.067c-12.243-0.299-17.785,3.269-20.741,7.811"/>
		
			<line style="fill:none;stroke:#263238;stroke-linecap:round;stroke-linejoin:round;stroke-miterlimit:10;" x1="381.841" y1="87.718" x2="391.981" y2="87.718"/>
		<path style="fill:none;stroke:#263238;stroke-linecap:round;stroke-linejoin:round;stroke-miterlimit:10;" d="M374.642,49.036
			c-0.868,2.95-1.806,5.497-3.935,6.852c-7.612,4.844-9.687-2.767-17.299,2.076c-7.612,4.844-4.152,14.531-10.379,15.915
			c-6.228,1.384-14.531-6.228-22.143-1.384c-7.612,4.843-7.612,8.995-11.071,8.995c-3.459,0-10.38-2.768-14.531,0
			c-4.152,2.768-8.995,6.228-8.995,6.228h77.807"/>
	</g>
</g>
<g id="Bench">
	<g>
		
			<polyline style="fill:none;stroke:#263238;stroke-width:5;stroke-linecap:round;stroke-linejoin:round;stroke-miterlimit:10;" points="
			442.077,314.114 418.43,399.114 431.212,450.242 		"/>
		
			<polyline style="fill:none;stroke:#263238;stroke-width:5;stroke-linecap:round;stroke-linejoin:round;stroke-miterlimit:10;" points="
			418.43,399.114 353.242,399.114 341.738,450.242 		"/>
		
			<polyline style="fill:none;stroke:#263238;stroke-width:5;stroke-linecap:round;stroke-linejoin:round;stroke-miterlimit:10;" points="
			224.783,314.114 201.136,399.114 213.918,450.242 		"/>
		
			<polyline style="fill:none;stroke:#263238;stroke-width:5;stroke-linecap:round;stroke-linejoin:round;stroke-miterlimit:10;" points="
			201.136,399.114 135.948,399.114 124.444,450.242 		"/>
		<g>
			<g>
				<polygon style="fill:#FFFFFF;stroke:#263238;stroke-linecap:round;stroke-linejoin:round;stroke-miterlimit:10;" points="
					214.787,320.785 451.42,320.785 454.608,309.652 217.975,309.652 				"/>
				<polygon style="fill:#FFFFFF;stroke:#263238;stroke-linecap:round;stroke-linejoin:round;stroke-miterlimit:10;" points="
					209.846,338.04 446.479,338.04 449.667,326.908 213.034,326.908 				"/>
				<polygon style="fill:#FFFFFF;stroke:#263238;stroke-linecap:round;stroke-linejoin:round;stroke-miterlimit:10;" points="
					204.906,355.296 441.539,355.296 444.726,344.164 208.093,344.164 				"/>
				<polygon style="fill:#FFFFFF;stroke:#263238;stroke-linecap:round;stroke-linejoin:round;stroke-miterlimit:10;" points="
					199.965,372.552 436.598,372.552 439.785,361.419 203.152,361.419 				"/>
				<polygon style="fill:#FFFFFF;stroke:#263238;stroke-linecap:round;stroke-linejoin:round;stroke-miterlimit:10;" points="
					195.024,389.808 431.657,389.808 434.845,378.675 198.212,378.675 				"/>
			</g>
			<g>
				<polygon style="fill:#FFFFFF;stroke:#263238;stroke-linecap:round;stroke-linejoin:round;stroke-miterlimit:10;" points="
					211.051,320.785 447.684,320.785 450.872,309.652 214.239,309.652 				"/>
				<polygon style="fill:#FFFFFF;stroke:#263238;stroke-linecap:round;stroke-linejoin:round;stroke-miterlimit:10;" points="
					206.111,338.04 442.744,338.04 445.931,326.908 209.298,326.908 				"/>
				<polygon style="fill:#FFFFFF;stroke:#263238;stroke-linecap:round;stroke-linejoin:round;stroke-miterlimit:10;" points="
					201.17,355.296 437.803,355.296 440.99,344.164 204.357,344.164 				"/>
				<polygon style="fill:#FFFFFF;stroke:#263238;stroke-linecap:round;stroke-linejoin:round;stroke-miterlimit:10;" points="
					196.229,372.552 432.862,372.552 436.05,361.419 199.417,361.419 				"/>
				<polygon style="fill:#FFFFFF;stroke:#263238;stroke-linecap:round;stroke-linejoin:round;stroke-miterlimit:10;" points="
					191.288,389.808 427.921,389.808 431.109,378.675 194.476,378.675 				"/>
			</g>
			
				<rect x="130.835" y="395.279" style="fill:#FFFFFF;stroke:#263238;stroke-linecap:round;stroke-linejoin:round;stroke-miterlimit:10;" width="297.244" height="6.391"/>
			
				<rect x="352.74" y="395.279" style="fill:#FFFFFF;stroke:#263238;stroke-linecap:round;stroke-linejoin:round;stroke-miterlimit:10;" width="75.339" height="6.391"/>
		</g>
	</g>
</g>
<g id="Lamp">
	<g>
		<polygon style="fill:#263238;stroke:#263238;stroke-linecap:round;stroke-linejoin:round;stroke-miterlimit:10;" points="
			110.333,439.667 93.667,439.667 96.167,82.036 107.833,82.036 		"/>
		<polygon style="fill:#263238;stroke:#263238;stroke-linecap:round;stroke-linejoin:round;stroke-miterlimit:10;" points="
			115.002,79.988 87.932,79.988 84.548,40.228 118.386,40.228 		"/>
		<polygon style="fill:#FFFFFF;stroke:#263238;stroke-linecap:round;stroke-linejoin:round;stroke-miterlimit:10;" points="
			111.977,79.988 90.956,79.988 88.329,40.228 114.605,40.228 		"/>
		
			<rect x="81.896" y="36.564" style="fill:#263238;stroke:#263238;stroke-linecap:round;stroke-linejoin:round;stroke-miterlimit:10;" width="39.339" height="6.63"/>
		
			<rect x="84.99" y="75.675" style="fill:#263238;stroke:#263238;stroke-linecap:round;stroke-linejoin:round;stroke-miterlimit:10;" width="33.151" height="8.183"/>
		
			<rect x="87.2" y="32.144" style="fill:#263238;stroke:#263238;stroke-linecap:round;stroke-linejoin:round;stroke-miterlimit:10;" width="28.289" height="4.42"/>
		
			<rect x="98.288" y="25.552" style="fill:#263238;stroke:#263238;stroke-linecap:round;stroke-linejoin:round;stroke-miterlimit:10;" width="4.862" height="6.63"/>
		
			<rect x="87.667" y="414.382" style="fill:#263238;stroke:#263238;stroke-linecap:round;stroke-linejoin:round;stroke-miterlimit:10;" width="29.333" height="35.609"/>
	</g>
</g>
<g id="Floor">
	<g>
		
			<line style="fill:none;stroke:#263238;stroke-linecap:round;stroke-linejoin:round;stroke-miterlimit:10;" x1="475.398" y1="450.54" x2="486.453" y2="450.54"/>
		
			<line style="fill:none;stroke:#263238;stroke-linecap:round;stroke-linejoin:round;stroke-miterlimit:10;" x1="31.784" y1="450.54" x2="465.264" y2="450.54"/>
	</g>
</g>
<g id="Character">
	<g>
		<g>
			<path style="fill:#FFFFFF;stroke:#263238;stroke-linecap:round;stroke-linejoin:round;stroke-miterlimit:10;" d="
				M303.434,225.369l4.199,18.107c0,0-5.511,6.298-10.497,3.936c-4.986-2.362-6.823-15.483-6.823-15.483L303.434,225.369z"/>
			<path style="fill:#92E3A9;stroke:#263238;stroke-linecap:round;stroke-linejoin:round;stroke-miterlimit:10;" d="M290.654,180.52
				c0,0,4.702,3.761,5.642,10.03c0.94,6.269,15.123,48.115,15.123,48.115s-7.914-1.561-15.437,1.26
				c-7.522,2.821-15.279-4.657-15.279-4.657l-0.392-49.42"/>
			
				<line style="fill:none;stroke:#263238;stroke-linecap:round;stroke-linejoin:round;stroke-miterlimit:10;" x1="290.626" y1="219.447" x2="294.406" y2="200.545"/>
		</g>
		<path style="fill:#FFFFFF;stroke:#263238;stroke-linecap:round;stroke-linejoin:round;stroke-miterlimit:10;" d="M201.013,233.803
			l0.067,0.038c4.096-14.64,12.429-39.262,14.037-44.545c2.194-7.209,5.955-9.089,5.955-9.089l5.642,35.104l-2.194,4.701
			c0,0-6.092,16.942-10.709,25.309l12.59,26.721l4.388,9.403l-5.642,8.149c0,0-25.701-39.805-26.955-42.626
			C196.938,244.146,201.013,233.803,201.013,233.803z"/>
		<g>
			<path style="fill:#92E3A9;stroke:#263238;stroke-linecap:round;stroke-linejoin:round;stroke-miterlimit:10;" d="M222.639,179.58
				c0,0-4.388,0.94-7.522,5.955c-3.134,5.015-18.492,55.477-18.492,55.477s4.701,3.761,10.97,4.701
				c6.269,0.94,9.716,0.313,9.716,0.313l9.089-23.821"/>
		</g>
		<polyline style="fill:none;stroke:#263238;stroke-linecap:round;stroke-linejoin:round;stroke-miterlimit:10;" points="
			216.908,204.326 224.468,225.748 214.072,212.832 		"/>
		<path style="fill:#FFFFFF;stroke:#263238;stroke-linecap:round;stroke-linejoin:round;stroke-miterlimit:10;" d="M295.396,443.584
			c0,0,0,1.274,7.962,7.962c7.962,6.688,9.554,8.599,7.325,10.828c-2.229,2.229-13.058-1.911-16.561-4.14
			c-3.503-2.229-1.911-2.229-6.051-4.14c-4.14-1.911-2.229-8.599-1.592-10.191C287.116,442.31,295.396,443.584,295.396,443.584z"/>
		<path style="fill:#FFFFFF;stroke:#263238;stroke-linecap:round;stroke-linejoin:round;stroke-miterlimit:10;" d="M218.38,442.14
			c0,0,0,1.274-7.962,7.962c-7.962,6.688-9.555,8.599-7.325,10.828c2.229,2.23,13.058-1.911,16.561-4.14
			c3.503-2.229,1.911-2.229,6.051-4.14c4.14-1.911,2.229-8.599,1.592-10.191C226.661,440.866,218.38,442.14,218.38,442.14z"/>
		<path style="fill:#263238;stroke:#263238;stroke-linecap:round;stroke-linejoin:round;stroke-miterlimit:10;" d="M223.269,322.938
			c-1.016-10.716,1.251-31.746,1.251-34.285c0-2.682,4.807-12.911,6.198-15.816l0.136-3.354c0,0,49.546-1.87,56.09-4.207
			c0,0,7.644,26.881,8.579,52.122c0.935,25.24,5.142,56.09,4.207,73.852c-0.748,14.221-1.409,42.572-2.037,52.096
			c-0.147,2.234-1.745,4.104-3.927,4.6l-1.146,0.26c-2.919,0.663-5.772-1.332-6.142-4.303
			c-2.298-18.482-10.788-80.518-14.326-91.916c-4.207-13.555-12.854-50.247-12.854-50.247s-19.865,90.445-22.202,102.598
			c-2.337,12.153-9.816,39.73-9.816,39.73s-3.739,1.402-6.076,1.402c-2.337,0-5.111-0.93-5.111-0.93L223.269,322.938z"/>
		<g>
			<path style="fill:#92E3A9;stroke:#263238;stroke-linecap:round;stroke-linejoin:round;stroke-miterlimit:10;" d="
				M258.173,170.995c0,0,12.086,2.417,20.244,4.835c8.158,2.417,13.597,3.928,13.597,6.647c0,2.719-3.626,83.998-3.626,83.998
				s-0.302,3.324-7.554,4.23c-7.252,0.907-45.624,2.115-48.042,1.511c-2.417-0.604-3.324-3.021-3.626-6.647
				c-0.302-3.626-9.669-80.674-9.064-84.3c0.604-3.626,30.215-9.064,31.121-9.367C252.13,171.6,254.85,170.391,258.173,170.995z"/>
			
				<ellipse style="fill:#92E3A9;stroke:#263238;stroke-linecap:round;stroke-linejoin:round;stroke-miterlimit:10;" cx="255.027" cy="182.588" rx="13.231" ry="11.026"/>
			<path style="fill:none;stroke:#263238;stroke-linecap:round;stroke-linejoin:round;stroke-miterlimit:10;" d="M289.51,217.72
				c0,0-12.485,27.942-29.131,42.21"/>
			<path style="fill:none;stroke:#263238;stroke-linecap:round;stroke-linejoin:round;stroke-miterlimit:10;" d="M241.776,266.992
				c-1.421,1.07-2.768,1.917-3.988,2.451"/>
			<path style="fill:none;stroke:#263238;stroke-linecap:round;stroke-linejoin:round;stroke-miterlimit:10;" d="M264.541,242.095
				c0,0-10.78,14.497-19.994,22.622"/>
		</g>
		<g>
			<path style="fill:#FFFFFF;stroke:#263238;stroke-linecap:round;stroke-linejoin:round;stroke-miterlimit:10;" d="
				M266.752,150.214c0,0,2.793-6.983,4.19-1.396c1.397,5.586-3.491,12.569-6.284,10.474"/>
			<path style="fill:#FFFFFF;stroke:#263238;stroke-linecap:round;stroke-linejoin:round;stroke-miterlimit:10;" d="M238.123,151.96
				c0,0-5.935-3.84-5.586,1.396c0.349,5.237,5.586,11.172,7.332,8.03"/>
			<path style="fill:#FFFFFF;stroke:#263238;stroke-linecap:round;stroke-linejoin:round;stroke-miterlimit:10;" d="
				M264.658,159.292l-0.349,21.646c0,0-0.349,8.728-9.776,8.728c-9.427,0-9.077-10.823-9.077-10.823l-2.095-17.457
				C243.36,161.386,258.373,163.132,264.658,159.292z"/>
			<path style="fill:#263238;" d="M255.048,177.388c2.901-0.527,6.55-3.935,9.389-7.084l0.133-8.244l-5.798-3.497
				c-3.317,0.555-7.008,0.614-9.949,0.525l-4.864,4.627l0.919,7.658C247.443,174.258,251.545,178.025,255.048,177.388z"/>
			<path style="fill:#FFFFFF;stroke:#263238;stroke-linecap:round;stroke-linejoin:round;stroke-miterlimit:10;" d="
				M235.606,146.969c0,0-4.19-12.918,6.983-20.599c11.172-7.681,23.043,2.095,24.439,11.871c1.397,9.776,0.349,22.694-4.888,30.025
				c-5.237,7.332-8.49,7.859-14.314,3.491C242.001,167.39,235.955,155.348,235.606,146.969z"/>
			<path style="fill:none;stroke:#263238;stroke-linecap:round;stroke-linejoin:round;stroke-miterlimit:10;" d="M242.326,154.075
				c0,0,2.377,1.945,6.268,0"/>
			<path style="fill:none;stroke:#263238;stroke-linecap:round;stroke-linejoin:round;stroke-miterlimit:10;" d="M255.51,153.426
				c0,0,5.187,1.729,7.348-1.081"/>
			<path style="fill:none;stroke:#263238;stroke-linecap:round;stroke-linejoin:round;stroke-miterlimit:10;" d="M250.539,161.855
				c0,0,1.945,1.513,3.242,1.081c1.297-0.432,1.729-2.161,1.729-2.161"/>
			<path style="fill:none;stroke:#263238;stroke-linecap:round;stroke-linejoin:round;stroke-miterlimit:10;" d="M250.971,166.178
				c0,0,3.242,1.729,6.051-1.297"/>
			<path style="fill:none;stroke:#263238;stroke-linecap:round;stroke-linejoin:round;stroke-miterlimit:10;" d="M241.462,150.617
				c0,0,4.106-2.161,7.348-1.081"/>
			<path style="fill:none;stroke:#263238;stroke-linecap:round;stroke-linejoin:round;stroke-miterlimit:10;" d="M254.213,149.32
				c0,0,3.458-2.81,7.132-1.081"/>
			<path style="fill:#263238;stroke:#263238;stroke-linecap:round;stroke-linejoin:round;stroke-miterlimit:10;" d="
				M238.334,141.812c0,0,1.337,4.346,1.003,6.017c-0.334,1.672,1.671,6.352-1.337,6.017c-3.009-0.334-4.346-12.035-4.346-12.035
				H238.334z"/>
			<path style="fill:#263238;stroke:#263238;stroke-linecap:round;stroke-linejoin:round;stroke-miterlimit:10;" d="
				M267.084,148.498c0,0-2.674,2.34-2.674-0.334c0-2.674,2.006-4.012,0.334-6.017c-1.672-2.006-5.014-3.343-5.014-6.686
				c0-3.343,0-5.683,0-5.683s-7.02,7.02-13.038,10.363c-6.018,3.343-12.035,5.349-16.715,3.677c-4.68-1.672,1.671-7.689,1.671-7.689
				s-7.02,3.677-7.02-2.674c0-6.352,11.701-14.71,22.398-14.71c10.698,0,14.375,7.02,14.375,7.02s6.352,0,7.355,5.683
				C269.758,137.132,267.084,148.498,267.084,148.498z"/>
		</g>
		<g>
			<polygon style="fill:#263238;stroke:#263238;stroke-linecap:round;stroke-linejoin:round;stroke-miterlimit:10;" points="
				252.172,195.68 256.317,224.473 269.996,223.057 267.095,193.32 			"/>
			<path style="fill:#FFFFFF;stroke:#263238;stroke-linecap:round;stroke-linejoin:round;stroke-miterlimit:10;" d="
				M275.092,212.248l-2.099-4.724l-4.724-3.149l0.525,3.149l1.837,4.199l-8.135-1.312l-7.085-0.262c0,0-0.787,1.575,0,1.837
				c0.787,0.262,6.036,2.362,6.036,2.362l-7.61,0.787c0,0-1.05,2.099,0,2.624c1.05,0.525,2.887,5.248,5.773,6.036
				c2.887,0.787,13.384-1.575,13.384-1.575s16.795,30.179,20.207,32.541s9.71,1.05,11.284,0.262c1.575-0.787,4.489-4.945,4.199-9.71
				c-0.128-2.095-31.753-28.867-31.753-28.867L275.092,212.248z"/>
		</g>
	</g>
</g>
<g id="Notification_2">
	<g>
		<path style="fill:#263238;" d="M290.386,198.579l28.835-11.136v-21.879c0-2.905,2.355-5.26,5.26-5.26h63.926
			c2.905,0,5.26,2.355,5.26,5.26v35.383c0,2.905-2.355,5.26-5.26,5.26h-63.926c-2.905,0-5.26-2.355-5.26-5.26v-5.409
			L290.386,198.579z"/>
		<path style="fill:#FFFFFF;stroke:#263238;stroke-linecap:round;stroke-linejoin:round;stroke-miterlimit:10;" d="M288.155,198.57
			l27.733-14.46v-21.879c0-2.905,2.355-5.26,5.26-5.26h63.926c2.905,0,5.26,2.355,5.26,5.26v35.383c0,2.905-2.355,5.26-5.26,5.26
			h-63.926c-2.905,0-5.26-2.355-5.26-5.26v-5.409L288.155,198.57z"/>
		<path style="fill:#263238;" d="M345.426,185.764c-1.615,0-2.386-0.578-2.727-1.285v-9.784c0-3.343-2.088-6.197-5.03-7.333
			c0.037-0.17,0.057-0.346,0.057-0.527c0-1.373-1.113-2.487-2.487-2.487h-0.642c-1.373,0-2.486,1.113-2.486,2.487
			c0,0.161,0.017,0.318,0.046,0.47c-3.021,1.096-5.179,3.991-5.179,7.391v9.784c-0.341,0.707-1.112,1.285-2.727,1.285v2.727h8.029
			c-0.003,0.053-0.008,0.106-0.008,0.16c0,1.418,1.149,2.567,2.567,2.567c1.418,0,2.567-1.149,2.567-2.567
			c0-0.054-0.005-0.107-0.008-0.16h8.029V185.764z"/>
		
			<line style="fill:#FFFFFF;stroke:#263238;stroke-linecap:round;stroke-linejoin:round;stroke-miterlimit:10;" x1="350.333" y1="172.333" x2="379" y2="172.333"/>
		
			<line style="fill:#FFFFFF;stroke:#263238;stroke-linecap:round;stroke-linejoin:round;stroke-miterlimit:10;" x1="350.333" y1="180.333" x2="379" y2="180.333"/>
		
			<line style="fill:#FFFFFF;stroke:#263238;stroke-linecap:round;stroke-linejoin:round;stroke-miterlimit:10;" x1="350.333" y1="188.333" x2="379" y2="188.333"/>
	</g>
</g>
<g id="Notification_1">
	<g>
		<path style="fill:#263238;" d="M241.856,203.25l-24.521-10.766v-21.879c0-2.905-2.355-5.26-5.26-5.26h-54.509
			c-2.905,0-5.26,2.355-5.26,5.26v35.383c0,2.905,2.355,5.26,5.26,5.26h54.509c2.905,0,5.26-2.355,5.26-5.26v-5.409L241.856,203.25z
			"/>
		<path style="fill:#FFFFFF;stroke:#263238;stroke-linecap:round;stroke-linejoin:round;stroke-miterlimit:10;" d="M242.992,203.83
			l-27.733-14.46V167.49c0-2.905-2.355-5.26-5.26-5.26H155.49c-2.905,0-5.26,2.355-5.26,5.26v35.383c0,2.905,2.355,5.26,5.26,5.26
			h54.509c2.905,0,5.26-2.355,5.26-5.26v-5.409L242.992,203.83z"/>
		<g>
			<circle style="fill:#92E3A9;" cx="181.789" cy="184.704" r="16.735"/>
			<g>
				<path d="M178.789,193.218c0-1.01,0.314-1.841,0.942-2.494c0.628-0.652,1.497-0.979,2.605-0.979c1.108,0,1.977,0.327,2.605,0.979
					c0.628,0.653,0.942,1.484,0.942,2.494c0,1.01-0.314,1.842-0.942,2.494c-0.628,0.652-1.497,0.979-2.605,0.979
					c-1.108,0-1.977-0.327-2.605-0.979C179.103,195.06,178.789,194.228,178.789,193.218z M185.588,174.596
					c0,0.567-0.013,1.385-0.037,2.457c-0.024,1.071-0.074,2.229-0.147,3.473c-0.074,1.244-0.173,2.488-0.296,3.732
					c-0.124,1.244-0.271,2.322-0.443,3.233c-0.099,0.074-0.247,0.148-0.443,0.222c-0.197,0.074-0.406,0.136-0.628,0.185
					c-0.222,0.05-0.443,0.087-0.665,0.111c-0.222,0.025-0.419,0.037-0.591,0.037c-0.715,0-1.311-0.111-1.792-0.333
					c-0.48-0.222-0.782-0.652-0.905-1.293c-0.124-0.566-0.228-1.429-0.314-2.587c-0.087-1.158-0.166-2.414-0.24-3.769
					c-0.074-1.355-0.129-2.697-0.167-4.027c-0.037-1.33-0.055-2.463-0.055-3.399c0.492-0.27,1.053-0.486,1.681-0.646
					c0.628-0.16,1.25-0.24,1.866-0.24c1.01,0,1.792,0.234,2.346,0.702C185.31,172.921,185.588,173.635,185.588,174.596z"/>
			</g>
		</g>
	</g>
</g>
</svg>
